<?xml version="1.0" encoding="UTF-8" standalone="no"?>
<!-- Created with Inkscape (http://www.inkscape.org/) -->

<svg
   xmlns:dc="http://purl.org/dc/elements/1.1/"
   xmlns:cc="http://creativecommons.org/ns#"
   xmlns:rdf="http://www.w3.org/1999/02/22-rdf-syntax-ns#"
   xmlns:svg="http://www.w3.org/2000/svg"
   xmlns="http://www.w3.org/2000/svg"
   xmlns:sodipodi="http://sodipodi.sourceforge.net/DTD/sodipodi-0.dtd"
   xmlns:inkscape="http://www.inkscape.org/namespaces/inkscape"
   width="2000"
   height="2000"
   viewBox="0 0 529.16665 529.16668"
   version="1.1"
   id="svg952"
   inkscape:version="0.92.3 (2405546, 2018-03-11)"
   sodipodi:docname="logotype_modesign.svg">
  <defs
     id="defs946" />
  <sodipodi:namedview
     id="base"
     pagecolor="#ffffff"
     bordercolor="#666666"
     borderopacity="1.0"
     inkscape:pageopacity="0.0"
     inkscape:pageshadow="2"
     inkscape:zoom="0.12500001"
     inkscape:cx="1271.6583"
     inkscape:cy="723.79495"
     inkscape:document-units="mm"
     inkscape:current-layer="layer1"
     showgrid="false"
     borderlayer="true"
     inkscape:showpageshadow="false"
     units="px"
     inkscape:window-width="1024"
     inkscape:window-height="713"
     inkscape:window-x="0"
     inkscape:window-y="27"
     inkscape:window-maximized="1"
     showguides="false"
     inkscape:guide-bbox="true">
    <sodipodi:guide
       position="-142.18739,243.74981"
       orientation="0,1"
       id="guide1387"
       inkscape:locked="false" />
    <sodipodi:guide
       position="-94.078872,211.67747"
       orientation="0,1"
       id="guide1389"
       inkscape:locked="false" />
    <sodipodi:guide
       position="-672.39667,198.68817"
       orientation="1,0"
       id="guide1391"
       inkscape:locked="false" />
    <sodipodi:guide
       position="-635.83151,243.74981"
       orientation="1,0"
       id="guide1393"
       inkscape:locked="false" />
    <sodipodi:guide
       position="-464.15047,21.476726"
       orientation="0,1"
       id="guide1397"
       inkscape:locked="false" />
    <sodipodi:guide
       position="-710.75765,211.92298"
       orientation="1,0"
       id="guide1399"
       inkscape:locked="false" />
    <sodipodi:guide
       position="-623.91437,276.33559"
       orientation="0,1"
       id="guide1419"
       inkscape:locked="false" />
  </sodipodi:namedview>
  <metadata
     id="metadata949">
    <rdf:RDF>
      <cc:Work
         rdf:about="">
        <dc:format>image/svg+xml</dc:format>
        <dc:type
           rdf:resource="http://purl.org/dc/dcmitype/StillImage" />
        <dc:title />
      </cc:Work>
    </rdf:RDF>
  </metadata>
  <g
     inkscape:label="Capa 1"
     inkscape:groupmode="layer"
     id="layer1"
     transform="translate(0,232.16668)">
    <path
       sodipodi:nodetypes="cssscccccccc"
       inkscape:connector-curvature="0"
       id="path1379"
       d="m -206.04456,35.553472 c -7.70879,133.824358 -118.67337,239.969198 -254.42948,239.969448 -87.88844,1.6e-4 -154.24026,-43.97614 -193.03691,-88.08977 -44.45126,-50.54321 -54.71563,-102.109862 -53.54233,-102.109887 l 34.65661,-7.47e-4 v -22.93172 c 0,-5.404403 4.73634,-9.14062 9.72861,-9.14062 h 26.83655 V 30.772811 c 0,-5.361879 6.00988,-10.107753 11.8908,-10.107752 l 403.08037,3.7e-5 c 8.39119,-4.4e-5 15.24348,6.852242 14.81578,14.888376 z"
       style="fill:#1a1a1a;fill-rule:evenodd;stroke:none;stroke-width:11.17952347;stroke-miterlimit:4;stroke-dasharray:none;stroke-opacity:1" />
    <g
       transform="matrix(2.2359046,0,0,2.2359046,-655.66776,-1979.6891)"
       id="g1385">
      <circle
         r="42.364487"
         cy="833.54291"
         cx="34.164017"
         id="circle1381"
         style="fill:#1a1a1a;fill-rule:evenodd;stroke:none;stroke-width:5;stroke-miterlimit:4;stroke-dasharray:none;stroke-opacity:1" />
      <rect
         ry="7.8493061"
         y="817.9325"
         x="97.623703"
         height="31.220833"
         width="81.883728"
         id="rect1383"
         style="fill:#1a1a1a;fill-rule:evenodd;stroke:none;stroke-width:5;stroke-miterlimit:4;stroke-dasharray:none;stroke-opacity:1" />
    </g>
    <g
       id="g3289"
       transform="translate(0,4.6697706)">
      <g
         style="fill:#333333;fill-opacity:1"
         transform="translate(2.6537001e-6)"
         id="g3277">
        <path
           style="fill:#333333;fill-opacity:1;fill-rule:evenodd;stroke:none;stroke-width:6.98102093;stroke-miterlimit:4;stroke-dasharray:none;stroke-opacity:1"
           d="M 423.44643,-56.923839 C 418.6327,26.642394 349.3412,92.924107 264.56869,92.924388 179.90514,92.924531 110.68241,26.813542 105.70892,-56.6008 c -0.0585,-4.998941 4.56259,-9.620069 9.59501,-9.620069 l 298.89083,2.7e-5 c 5.23986,-2.7e-5 9.51875,4.278863 9.25167,9.297003 z"
           id="path1055"
           inkscape:connector-curvature="0"
           sodipodi:nodetypes="cscccc" />
        <g
           style="fill:#333333;fill-opacity:1"
           id="g935"
           transform="matrix(1.3962041,0,0,1.3962041,144.9936,-1315.3362)">
          <circle
             style="fill:#333333;fill-opacity:1;fill-rule:evenodd;stroke:none;stroke-width:5;stroke-miterlimit:4;stroke-dasharray:none;stroke-opacity:1"
             id="circle1057"
             cx="34.164017"
             cy="833.54291"
             r="42.364487" />
          <rect
             style="fill:#333333;fill-opacity:1;fill-rule:evenodd;stroke:none;stroke-width:5;stroke-miterlimit:4;stroke-dasharray:none;stroke-opacity:1"
             id="rect1059"
             width="81.883728"
             height="31.220833"
             x="97.623703"
             y="817.9325"
             ry="7.8493061" />
        </g>
      </g>
      <g
         transform="translate(-4.8243644,6.3500003)"
         id="g3271">
        <text
           xml:space="preserve"
           style="font-style:normal;font-variant:normal;font-weight:bold;font-stretch:normal;font-size:122.72496033px;line-height:1.20000005;font-family:'Josefin Sans';-inkscape-font-specification:'Josefin Sans, Bold';font-variant-ligatures:normal;font-variant-caps:normal;font-variant-numeric:normal;font-feature-settings:normal;text-align:center;letter-spacing:-3.05285764px;word-spacing:0px;writing-mode:lr-tb;text-anchor:middle;fill:#333333;fill-opacity:1;stroke:#333333;stroke-width:1.45766282;stroke-miterlimit:4;stroke-dasharray:none;stroke-opacity:1"
           x="267.98102"
           y="223.8979"
           id="text1859"><tspan
             sodipodi:role="line"
             id="tspan1857"
             x="264.34259"
             y="223.8979"
             style="font-style:normal;font-variant:normal;font-weight:bold;font-stretch:normal;font-size:122.72496033px;font-family:'Josefin Sans';-inkscape-font-specification:'Josefin Sans, Bold';font-variant-ligatures:normal;font-variant-caps:normal;font-variant-numeric:normal;font-feature-settings:normal;text-align:center;letter-spacing:-7.27685452px;writing-mode:lr-tb;text-anchor:middle;fill:#333333;stroke:#333333;stroke-width:1.45766282;stroke-miterlimit:4;stroke-dasharray:none;stroke-opacity:1">Flatti  n</tspan></text>
        <path
           sodipodi:nodetypes="zccsccscccccczcscsccccccscscc"
           inkscape:connector-curvature="0"
           id="path1861"
           style="font-style:normal;font-variant:normal;font-weight:bold;font-stretch:normal;font-size:10.24936581px;line-height:1.20000005;font-family:'Josefin Sans';-inkscape-font-specification:'Josefin Sans, Bold';font-variant-ligatures:normal;font-variant-caps:normal;font-variant-numeric:normal;font-feature-settings:normal;text-align:end;letter-spacing:-0.25495917px;word-spacing:0px;writing-mode:lr-tb;text-anchor:end;fill:#333333;fill-opacity:1;stroke:#333333;stroke-width:1.45766294;stroke-miterlimit:4;stroke-dasharray:none;stroke-opacity:1"
           d="m 384.14513,223.45082 c -9.73822,4.13381 -23.24924,3.20848 -31.86275,-1.76177 -4.09094,-2.53637 -7.36347,-5.93181 -9.81804,-10.18623 -2.45449,-4.33622 -3.68174,-9.24521 -3.68174,-14.72694 0,-5.64537 1.30914,-10.63616 3.92717,-14.97239 2.61812,-4.4182 6.01356,-7.89536 10.18616,-10.43167 4.1726,-2.53638 8.59072,-3.8045 13.25435,-3.8045 4.66347,0 8.67246,0.69544 12.02694,2.08631 3.43639,1.30914 6.01356,2.94536 7.73167,4.90898 l -0.61338,1.59551 1.84086,-5.89079 h 15.83161 v 30.81378 c -0.59029,10.75 -9.08487,18.23598 -18.82316,22.36971 z m -28.05889,-27.16589 c 0,2.86354 0.65481,5.44087 1.96354,7.73166 1.30914,2.29088 3.06813,4.09079 5.27717,5.39993 2.29088,1.30905 4.82718,1.96355 7.60892,1.96355 2.37268,0 4.45898,-0.28598 6.25906,-0.85851 1.88166,-0.6548 3.51804,-1.55456 4.90891,-2.7 1.47268,-1.22724 2.7,-2.74087 3.68173,-4.54071 v -13.13167 c -0.73605,-1.79993 -1.84046,-3.31355 -3.31354,-4.5408 -1.47268,-1.30905 -3.19079,-2.29078 -5.15442,-2.94543 -1.88181,-0.73607 -4.00906,-1.10402 -6.38174,-1.10402 -2.78174,0 -5.31804,0.65481 -7.60892,1.96363 -2.20904,1.22717 -3.96803,2.94536 -5.27717,5.15441 -1.30905,2.20906 -1.96354,4.74536 -1.96354,7.60892 z" />
        <path
           style="fill:#333333;fill-opacity:1;stroke:none;stroke-width:1.45766282;stroke-linecap:butt;stroke-linejoin:miter;stroke-miterlimit:4;stroke-dasharray:none;stroke-opacity:1"
           d="m 354.45003,233.23127 -13.17622,10.22065 c 0,0 7.40323,16.38166 29.60128,16.38149 22.1982,-1.5e-4 29.60143,-16.38149 29.60143,-16.38149 l -13.17644,-10.22065 c 0,0 -4.37606,10.22073 -16.42499,10.22065 -12.04878,-3.1e-4 -16.42506,-10.22065 -16.42506,-10.22065 z"
           id="path1865"
           inkscape:connector-curvature="0"
           sodipodi:nodetypes="cczcczc" />
      </g>
    </g>
  </g>
</svg>
