<svg width="120" height="33" viewBox="0 0 120 33" fill="none" xmlns="http://www.w3.org/2000/svg">
<path d="M23.1125 14.1244H13.0286C12.9036 14.1244 12.7837 14.175 12.6954 14.2649C12.607 14.3548 12.5573 14.4767 12.5573 14.6038V19.6171C12.5573 19.8818 12.7685 20.0968 13.0286 20.0968H16.9623V26.3258C16.9623 26.3258 16.079 26.6317 13.637 26.6317C10.756 26.6317 6.73156 25.5615 6.73156 16.5621C6.73156 7.56072 10.9224 6.3764 14.8567 6.3764C18.2624 6.3764 19.7297 6.98622 20.6632 7.27995C20.9566 7.37091 21.2279 7.07413 21.2279 6.80962L22.3528 1.96564C22.3528 1.84165 22.3116 1.6925 22.1729 1.59137C21.7939 1.31619 19.4808 0 13.637 0C6.90548 0 0 2.91264 0 16.913C0 30.9137 7.90596 33 14.5683 33C20.0845 33 23.4308 30.6029 23.4308 30.6029C23.5687 30.5257 23.5837 30.3295 23.5837 30.2398V14.6038C23.5837 14.5409 23.5716 14.4786 23.5479 14.4204C23.5242 14.3622 23.4895 14.3094 23.4458 14.2648C23.402 14.2203 23.35 14.185 23.2929 14.1609C23.2357 14.1368 23.1744 14.1244 23.1125 14.1244V14.1244ZM75.0804 1.67751C75.081 1.61456 75.0693 1.55212 75.0461 1.49379C75.0228 1.43545 74.9885 1.38235 74.945 1.33756C74.9015 1.29277 74.8497 1.25716 74.7926 1.23278C74.7356 1.2084 74.6743 1.19573 74.6124 1.1955H68.9346C68.8726 1.19576 68.8113 1.20844 68.7541 1.23281C68.6969 1.25718 68.645 1.29275 68.6014 1.33751C68.5577 1.38227 68.5232 1.43533 68.4997 1.49367C68.4762 1.55201 68.4643 1.61447 68.4646 1.67751L68.4658 12.8356H59.6158V1.67751C59.6158 1.41071 59.4069 1.1955 59.1471 1.1955H53.4695C53.3445 1.1963 53.2249 1.24751 53.137 1.33789C53.0491 1.42826 53.0001 1.55041 53.0007 1.67751V31.8899C53.0007 32.1562 53.2113 32.3732 53.4695 32.3732H59.1471C59.4069 32.3732 59.6158 32.1562 59.6158 31.8899V18.9668H68.4658L68.4506 31.8899C68.4506 32.1562 68.6607 32.3732 68.9211 32.3732H74.6119C74.8718 32.3732 75.0797 32.1562 75.0802 31.8899L75.0804 1.67751ZM33.8267 5.64208C33.8267 3.56336 32.1876 1.88332 30.1654 1.88332C28.1451 1.88332 26.5047 3.56336 26.5047 5.64208C26.5047 7.71901 28.1451 9.40363 30.1654 9.40363C32.1876 9.40363 33.8267 7.71901 33.8267 5.64208ZM33.4207 25.5168V11.5705C33.4207 11.306 33.2108 11.0895 32.9509 11.0895H27.2913C27.0315 11.0895 26.7991 11.3614 26.7991 11.6264V31.6071C26.7991 32.194 27.1589 32.3688 27.6246 32.3688H32.724C33.2835 32.3688 33.4207 32.0893 33.4207 31.5977V25.5168ZM96.6587 11.1348H91.0245C90.7659 11.1348 90.5558 11.3512 90.5558 11.618V26.4318C90.5558 26.4318 89.124 27.4969 87.0925 27.4969C85.0611 27.4969 84.5219 26.5593 84.5219 24.5368V11.6178C84.5219 11.351 84.312 11.1345 84.0534 11.1345H78.335C78.0771 11.1345 77.8655 11.351 77.8655 11.6178V25.5145C77.8655 31.5227 81.1586 32.9929 85.6885 32.9929C89.4054 32.9929 92.4018 30.9048 92.4018 30.9048C92.4018 30.9048 92.5443 32.0052 92.6092 32.1356C92.6734 32.2657 92.8416 32.3973 93.0235 32.3973L96.6614 32.381C96.9193 32.381 97.1307 32.164 97.1307 31.8985L97.1287 11.6178C97.1287 11.351 96.9183 11.1345 96.6587 11.1345V11.1348ZM109.836 27.4786C107.881 27.4179 106.556 26.5164 106.556 26.5164V16.9486C106.556 16.9486 107.863 16.1335 109.468 15.9879C111.497 15.8032 113.452 16.4262 113.452 21.3482C113.452 26.538 112.57 27.5625 109.836 27.4786V27.4786ZM112.058 10.4561C108.858 10.4561 106.682 11.9082 106.682 11.9082V1.67751C106.682 1.41071 106.472 1.1955 106.213 1.1955H100.519C100.457 1.19583 100.396 1.20856 100.339 1.23296C100.282 1.25737 100.23 1.29296 100.186 1.33772C100.143 1.38248 100.108 1.43553 100.085 1.49383C100.061 1.55213 100.05 1.61454 100.05 1.67751V31.8899C100.05 32.1567 100.26 32.3734 100.52 32.3734H104.47C104.648 32.3734 104.783 32.2799 104.882 32.1165C104.981 31.9542 105.122 30.7239 105.122 30.7239C105.122 30.7239 107.45 32.9672 111.858 32.9672C117.033 32.9672 120 30.2983 120 20.9856C120 11.6732 115.26 10.4561 112.058 10.4561V10.4561ZM49.7391 11.0867H45.48L45.4735 5.36487C45.4735 5.14838 45.3641 5.04014 45.1175 5.04014H39.3137C39.0883 5.04014 38.9669 5.14127 38.9669 5.36182V11.2745C38.9669 11.2745 36.0583 11.9882 35.8619 12.0462C35.7638 12.075 35.6776 12.1355 35.6162 12.2186C35.5548 12.3016 35.5216 12.4027 35.5216 12.5066V16.2222C35.5216 16.4889 35.7315 16.7049 35.9911 16.7049H38.9671V25.6433C38.9671 32.2822 43.5465 32.9344 46.6367 32.9344C48.049 32.9344 49.7381 32.4733 50.017 32.3686C50.1856 32.3056 50.2838 32.1282 50.2838 31.9356L50.2886 27.8483C50.2886 27.5815 50.0669 27.3655 49.8178 27.3655C49.5694 27.3655 48.9345 27.4684 48.2809 27.4684C46.1889 27.4684 45.4798 26.4795 45.4798 25.1994V16.7047H49.7391C49.8012 16.7044 49.8625 16.6916 49.9197 16.6672C49.9769 16.6428 50.0288 16.6071 50.0725 16.5623C50.1161 16.5175 50.1507 16.4643 50.1741 16.4059C50.1976 16.3475 50.2095 16.285 50.2091 16.2219V11.5682C50.2091 11.3014 49.9987 11.0867 49.7391 11.0867" fill="#183153"/>
</svg>
