<svg width="29" height="30" viewBox="0 0 29 30" fill="none" xmlns="http://www.w3.org/2000/svg">
<path d="M10.7928 24.8592C11.5566 24.6186 11.9808 23.8044 11.7402 23.0406C11.4996 22.2767 10.6854 21.8526 9.92159 22.0932L10.7928 24.8592ZM3.71709 18.207L2.31462 17.8388L1.5782 20.6438L2.98067 21.012L3.71709 18.207ZM17.1929 28.3095V29.7595H20.0929V28.3095H17.1929ZM17.9524 18.6429L17.7975 17.2012C17.2415 17.2609 16.7694 17.6351 16.5842 18.1627C16.3991 18.6904 16.5338 19.2775 16.9306 19.6716L17.9524 18.6429ZM24.1667 11.4308L25.6167 11.4308L25.6167 11.4262L24.1667 11.4308ZM22.556 7.55208L21.2044 7.02714C20.9966 7.5622 21.1239 8.16947 21.5292 8.57592L22.556 7.55208ZM22.4593 3.65279L23.7833 3.06152C23.6086 2.67025 23.2697 2.3763 22.8577 2.25858L22.4593 3.65279ZM18.2592 5.18375L17.8934 6.58687C18.2866 6.68934 18.7046 6.62219 19.0459 6.40176L18.2592 5.18375ZM10.7409 5.18375L9.95442 6.40191C10.2956 6.62222 10.7136 6.68931 11.1067 6.58687L10.7409 5.18375ZM6.54076 3.65279L6.14206 2.25868C5.73018 2.37647 5.39147 2.67036 5.21679 3.06152L6.54076 3.65279ZM6.44409 7.55208L7.47077 8.57601C7.87613 8.16956 8.00355 7.56224 7.79573 7.02714L6.44409 7.55208ZM4.83338 11.4622L6.28339 11.4622L6.28338 11.4585L4.83338 11.4622ZM11.0477 18.6429L12.0713 19.6699C12.4648 19.2777 12.5996 18.6951 12.4184 18.1698C12.2371 17.6446 11.7717 17.2691 11.22 17.2031L11.0477 18.6429ZM10.3572 21.5429H11.8072C11.8072 21.5074 11.8059 21.472 11.8033 21.4367L10.3572 21.5429ZM8.90721 28.3095V29.7595H11.8072V28.3095H8.90721ZM9.92159 22.0932C8.82024 22.4401 8.18902 22.3805 7.82298 22.2597C7.46122 22.1403 7.161 21.8969 6.83808 21.4759C6.67318 21.261 6.51741 21.0198 6.34458 20.74C6.18464 20.4811 5.98724 20.1503 5.78949 19.8587C5.4109 19.3004 4.78113 18.4864 3.71709 18.207L2.98067 21.012C2.95217 21.0045 3.06885 21.0137 3.38928 21.4863C3.54104 21.7101 3.68129 21.9467 3.87735 22.2641C4.06053 22.5606 4.27912 22.9047 4.53713 23.241C5.06004 23.9227 5.7999 24.6459 6.91412 25.0136C8.02406 25.3799 9.30472 25.3279 10.7928 24.8592L9.92159 22.0932ZM20.0929 21.422C20.0929 20.3911 20.2071 18.8387 18.9743 17.6141L16.9306 19.6716C17.0468 19.7871 17.1035 19.893 17.1423 20.1072C17.1954 20.4008 17.1929 20.755 17.1929 21.422H20.0929ZM18.1074 20.0846C19.8718 19.8949 21.8234 19.4633 23.3112 18.0811C24.8439 16.6571 25.6167 14.487 25.6167 11.4308H22.7167C22.7167 14.0225 22.0686 15.2771 21.3373 15.9565C20.5611 16.6777 19.4055 17.0283 17.7975 17.2012L18.1074 20.0846ZM25.6167 11.4262C25.6108 9.58926 24.8798 7.82899 23.5828 6.52825L21.5292 8.57592C22.2865 9.33535 22.7133 10.3631 22.7167 11.4355L25.6167 11.4262ZM23.9077 8.07702C24.2194 7.27428 24.3689 6.41771 24.3476 5.55682L21.4485 5.62869C21.4603 6.1064 21.3774 6.58171 21.2044 7.02714L23.9077 8.07702ZM24.3476 5.55682C24.3263 4.69594 24.1345 3.84782 23.7833 3.06152L21.1354 4.24406C21.3302 4.68038 21.4366 5.15099 21.4485 5.62869L24.3476 5.55682ZM22.4593 3.65279C22.8577 2.25858 22.8563 2.25819 22.855 2.2578C22.8545 2.25767 22.8531 2.25729 22.8522 2.25703C22.8504 2.25651 22.8485 2.25598 22.8466 2.25546C22.8428 2.25441 22.8389 2.25335 22.835 2.25229C22.8271 2.25016 22.8188 2.24801 22.8103 2.24585C22.7931 2.24152 22.7746 2.23713 22.7547 2.23278C22.7149 2.22407 22.6699 2.21551 22.6194 2.20775C22.5184 2.19222 22.3967 2.18006 22.254 2.17625C21.9678 2.16861 21.6029 2.19466 21.1556 2.29023C20.2631 2.4809 19.0507 2.94633 17.4724 3.96574L19.0459 6.40176C20.3991 5.52771 21.2867 5.22766 21.7615 5.12622C21.9978 5.07573 22.1333 5.07406 22.1766 5.07522C22.1986 5.07581 22.1989 5.07718 22.1788 5.07407C22.1687 5.07253 22.1538 5.06991 22.134 5.06558C22.1242 5.06342 22.1132 5.06084 22.101 5.05777C22.0949 5.05623 22.0885 5.05457 22.0818 5.05278C22.0785 5.05188 22.0751 5.05096 22.0716 5.04999C22.0699 5.04951 22.0681 5.04902 22.0664 5.04852C22.0655 5.04827 22.0641 5.04789 22.0637 5.04777C22.0623 5.04739 22.061 5.047 22.4593 3.65279ZM18.6249 3.78063C15.9202 3.07563 13.0799 3.07563 10.3752 3.78063L11.1067 6.58687C13.3317 6.00688 15.6684 6.00688 17.8934 6.58687L18.6249 3.78063ZM11.5274 3.96559C9.94874 2.94631 8.73636 2.48091 7.84413 2.29024C7.39692 2.19467 7.03207 2.16861 6.74591 2.17625C6.60318 2.18007 6.48149 2.19223 6.38045 2.20778C6.33 2.21554 6.28491 2.22411 6.24513 2.23283C6.22525 2.23719 6.20672 2.24158 6.18954 2.24592C6.18095 2.24809 6.1727 2.25025 6.16478 2.25238C6.16083 2.25344 6.15695 2.2545 6.15317 2.25555C6.15127 2.25608 6.1494 2.2566 6.14755 2.25712C6.14663 2.25738 6.14525 2.25777 6.14479 2.2579C6.14342 2.25829 6.14206 2.25868 6.54076 3.65279C6.93946 5.0469 6.9381 5.04729 6.93676 5.04767C6.93631 5.04779 6.93497 5.04817 6.93408 5.04842C6.93231 5.04892 6.93055 5.04942 6.92881 5.0499C6.92534 5.05086 6.92193 5.05179 6.91859 5.05269C6.91192 5.05449 6.90553 5.05615 6.89943 5.05769C6.88722 5.06078 6.87617 5.06336 6.86629 5.06553C6.84651 5.06987 6.83152 5.0725 6.82145 5.07405C6.80119 5.07717 6.80144 5.0758 6.82336 5.07522C6.86651 5.07406 7.00183 5.07572 7.23808 5.12621C7.71278 5.22765 8.60048 5.52773 9.95442 6.40191L11.5274 3.96559ZM5.21679 3.06152C4.86563 3.84782 4.67384 4.69594 4.6525 5.55682L7.55161 5.62869C7.56345 5.15099 7.66988 4.68038 7.86473 4.24406L5.21679 3.06152ZM4.6525 5.55682C4.63116 6.41771 4.78069 7.27428 5.09245 8.07702L7.79573 7.02714C7.62274 6.58171 7.53977 6.1064 7.55161 5.62869L4.6525 5.55682ZM5.41741 6.52816C4.7703 7.177 4.25755 7.94713 3.90852 8.79444L6.58993 9.89899C6.79369 9.40436 7.09301 8.95478 7.47077 8.57601L5.41741 6.52816ZM3.90852 8.79444C3.55949 9.64175 3.38104 10.5496 3.38339 11.466L6.28338 11.4585C6.28201 10.9236 6.38618 10.3936 6.58993 9.89899L3.90852 8.79444ZM3.38338 11.4622C3.38338 14.5019 4.15847 16.6547 5.6929 18.0697C7.17676 19.438 9.12302 19.8729 10.8754 20.0826L11.22 17.2031C9.5999 17.0093 8.439 16.6572 7.65883 15.9377C6.92922 15.2649 6.28338 14.0293 6.28338 11.4622H3.38338ZM10.0241 17.6158C9.38453 18.2532 9.10381 19.0481 8.98047 19.7323C8.85693 20.4176 8.87097 21.1026 8.9111 21.6491L11.8033 21.4367C11.7709 20.9959 11.7732 20.5868 11.8345 20.2468C11.8959 19.9057 11.9967 19.7442 12.0713 19.6699L10.0241 17.6158ZM8.90721 21.5429V28.3095H11.8072V21.5429H8.90721ZM20.0929 28.3095V21.422H17.1929V28.3095H20.0929Z" fill="#183153"/>
</svg>
