<svg width="107" height="93" viewBox="0 0 107 93" fill="none" xmlns="http://www.w3.org/2000/svg">
<path d="M53.4997 12.6667C2.09789 -25.835 -31.9649 52.7049 53.4997 90.6786C138.964 52.7049 104.901 -25.835 53.4997 12.6667Z" fill="#EA2828"/>
<path d="M72.3999 3.25285C98.6385 10.503 102.635 58.1383 46.1368 87.1576C48.4865 88.3646 50.938 89.5402 53.4999 90.6784C127.88 57.6297 111.725 -6.14109 72.3999 3.25285Z" fill="#D12626"/>
<path d="M30.2841 4.07801C37.4267 4.89205 44.9204 8.20506 52.5571 13.9252C53.1158 14.3436 53.8835 14.3436 54.4422 13.9252C61.1418 8.90695 67.7727 5.72811 74.1511 4.47675C79.8092 3.36668 85.2245 3.84929 89.8119 5.87214C93.6731 7.57487 96.9926 10.39 99.4117 14.0128C101.851 17.6659 103.39 22.1594 103.863 27.0076C103.942 27.82 104.626 28.4273 105.426 28.4273C105.477 28.4273 105.529 28.4246 105.581 28.4198C106.445 28.3355 107.077 27.5665 106.993 26.7022C105.927 15.781 99.9786 6.91847 91.0809 2.99457C85.9018 0.710914 79.8383 0.155777 73.5458 1.391C67.0035 2.67444 60.2647 5.80925 53.4999 10.7137C45.7313 5.08011 38.0451 1.7975 30.6401 0.953472C29.778 0.855359 28.9982 1.47486 28.8998 2.33775C28.8015 3.20044 29.4212 3.97947 30.2841 4.07801Z" fill="#183153"/>
<path d="M105.56 32.6277C104.695 32.5422 103.926 33.1737 103.84 34.0378C102.892 43.6339 98.3667 53.4603 90.7549 62.4542C81.9169 72.897 69.385 81.8111 53.4999 88.9564C37.6148 81.8111 25.0831 72.8968 16.2449 62.4542C8.63315 53.4603 4.10819 43.6341 3.15934 34.0378C3.07381 33.1737 2.30316 32.542 1.44005 32.6277C0.575901 32.7133 -0.0553372 33.4831 0.0299879 34.3472C1.04194 44.5808 5.81889 55.0024 13.8447 64.4855C23.1095 75.4327 36.2366 84.7287 52.8615 92.1153C53.0649 92.2057 53.2823 92.2507 53.4999 92.2507C53.7175 92.2507 53.9351 92.2054 54.1383 92.1153C70.7633 84.7287 83.8903 75.4327 93.1551 64.4855C101.181 55.0026 105.958 44.581 106.97 34.3472C107.055 33.4831 106.424 32.7133 105.56 32.6277Z" fill="#183153"/>
<path d="M1.4195 28.4139C1.47149 28.4187 1.52306 28.4215 1.57421 28.4215C2.37359 28.4215 3.05786 27.8143 3.13732 27.0019C3.72914 20.9487 5.91888 15.6072 9.47004 11.5552C13.0434 7.47759 17.8363 4.91281 23.3304 4.13838C24.1904 4.01721 24.7891 3.22182 24.668 2.36186C24.5468 1.50211 23.7531 0.904625 22.8914 1.02433C10.3415 2.79373 1.35912 12.8703 0.00754284 26.6961C-0.0769437 27.5602 0.555133 28.3294 1.4195 28.4139Z" fill="#183153"/>
</svg>
