<svg width="24" height="22" viewBox="0 0 24 22" fill="none" xmlns="http://www.w3.org/2000/svg">
<path d="M9.13478 19.0422V16.2393C9.13478 15.5238 9.77217 14.9438 10.5584 14.9438H13.4326C13.8102 14.9438 14.1723 15.0803 14.4393 15.3232C14.7063 15.5662 14.8563 15.8957 14.8563 16.2393V19.0422C14.8539 19.3397 14.9821 19.6257 15.2124 19.8368C15.4427 20.0479 15.756 20.1666 16.0829 20.1666H18.0438C18.9596 20.1688 19.8388 19.8393 20.4872 19.2507C21.1356 18.6622 21.5 17.863 21.5 17.0297V9.0446C21.5 8.3714 21.1721 7.73284 20.6046 7.30093L13.934 2.45286C12.7737 1.60283 11.1111 1.63027 9.98539 2.51804L3.46701 7.30093C2.87274 7.7201 2.51755 8.36056 2.5 9.0446V17.0215C2.5 18.7585 4.04738 20.1666 5.95617 20.1666H7.87229C8.55123 20.1667 9.103 19.6682 9.10792 19.0504L9.13478 19.0422Z" fill="#183153"/>
</svg>
