<?xml version="1.0" encoding="UTF-8" standalone="no"?>
<!-- Created with Inkscape (http://www.inkscape.org/) -->

<svg
   width="661.27313mm"
   height="175.15417mm"
   viewBox="0 0 661.27313 175.15417"
   version="1.1"
   id="svg5"
   inkscape:version="1.1 (c68e22c387, 2021-05-23)"
   sodipodi:docname="linkedin_icon.svg"
   xmlns:inkscape="http://www.inkscape.org/namespaces/inkscape"
   xmlns:sodipodi="http://sodipodi.sourceforge.net/DTD/sodipodi-0.dtd"
   xmlns="http://www.w3.org/2000/svg"
   xmlns:svg="http://www.w3.org/2000/svg">
  <sodipodi:namedview
     id="namedview7"
     pagecolor="#ffffff"
     bordercolor="#666666"
     borderopacity="1.0"
     inkscape:pageshadow="2"
     inkscape:pageopacity="0.0"
     inkscape:pagecheckerboard="true"
     inkscape:document-units="mm"
     showgrid="false"
     fit-margin-top="0"
     fit-margin-left="0"
     fit-margin-right="0"
     fit-margin-bottom="0"
     borderlayer="true"
     inkscape:showpageshadow="false"
     inkscape:zoom="0.3750491"
     inkscape:cx="1246.5035"
     inkscape:cy="481.27032"
     inkscape:window-width="1920"
     inkscape:window-height="1027"
     inkscape:window-x="-8"
     inkscape:window-y="-8"
     inkscape:window-maximized="1"
     inkscape:current-layer="layer1" />
  <defs
     id="defs2" />
  <g
     inkscape:label="Capa 1"
     inkscape:groupmode="layer"
     id="layer1"
     transform="translate(244.21733,-29.882536)">
    <path
       id="path824"
       style="stroke-width:8.68218;fill:#183153;fill-opacity:1"
       d="M 1890.0879 0 C 1863.2425 0 1841.4668 21.245056 1841.4668 47.421875 L 1841.4668 614.5957 C 1841.4668 640.77252 1863.2425 662 1890.0879 662 L 2450.6797 662 C 2477.5337 662 2499.3008 640.77145 2499.3008 614.58594 L 2499.3008 47.421875 C 2499.3008 21.245056 2477.5337 0 2450.6797 0 L 1890.0879 0 z M 1991.877 111.13281 C 2025.8591 111.13281 2046.7746 133.44607 2047.4258 162.7832 C 2047.4258 191.46917 2025.8607 214.42383 1991.2188 214.42383 L 1991.209 214.42383 L 1990.5664 214.42383 C 1957.2181 214.42383 1935.6602 191.46917 1935.6602 162.7832 C 1935.6602 133.44607 1957.8688 111.13281 1991.877 111.13281 z M 2284.7812 248.22461 C 2350.1495 248.22461 2399.1602 290.94946 2399.1602 382.76367 L 2399.1602 554.1582 L 2299.8086 554.1582 L 2299.8086 394.25781 C 2299.8086 354.0679 2285.4228 326.6582 2249.4785 326.6582 C 2222.0254 326.6582 2205.6763 345.14266 2198.4961 363.00195 C 2195.8741 369.37469 2195.2227 378.31882 2195.2227 387.24414 L 2195.2227 554.1582 L 2095.875 554.1582 C 2095.875 554.1582 2095.875 554.16797 2095.875 554.16797 L 2095.873 554.1582 L 2095.875 554.1582 C 2095.8751 554.12728 2097.1764 283.28019 2095.8828 255.23828 L 2195.2324 255.23828 L 2195.2324 297.57422 C 2208.433 277.20673 2232.0437 248.22461 2284.7812 248.22461 z M 1941.5215 255.23047 L 2040.8809 255.23047 L 2040.8809 554.1582 L 1941.5215 554.1582 L 1941.5215 255.23047 z "
       transform="matrix(0.26458333,0,0,0.26458333,-244.21733,29.882536)" />
    <path
       d="m -244.21733,176.60011 h 72.63633 v -23.84916 h -46.34529 V 61.771768 h -26.29104 z m 109.41163,0 V 97.50875 h -26.28875 v 79.09136 z m -13.14208,-89.888032 c 9.16569,0 14.87184,-6.073702 14.87184,-13.668126 -0.16999,-7.75982 -5.70615,-13.661235 -14.69725,-13.661235 -8.9934,0 -14.87414,5.903712 -14.87414,13.661235 0,7.594424 5.70615,13.668126 14.52726,13.668126 z m 25.34691,89.888032 h 26.288746 v -44.16987 c 0,-2.36378 0.16999,-4.72757 0.866031,-6.41139 1.897457,-4.72297 6.223017,-9.61593 13.48665,-9.61593 9.514854,0 13.321255,7.25445 13.321255,17.88113 v 42.31376 h 26.284151 V 131.2495 c 0,-24.29481 -12.969788,-35.599156 -30.267434,-35.599156 -14.180394,0 -20.408006,7.927516 -23.867535,13.328146 h 0.176882 V 97.50875 h -26.288746 c 0.34687,7.42214 0,79.09136 0,79.09136 z M -5.2663224,61.771768 H -31.555068 V 176.60011 h 26.2887456 v -25.64324 l 6.5698893,-8.27209 20.5825901,33.91533 H 54.225633 L 19.639531,127.50282 49.902371,94.102055 H 18.256638 c 0,0 -21.6186114,29.881515 -23.5229604,33.428335 z"
       id="path826"
       style="stroke-width:2.29716;fill:#183153;fill-opacity:1" />
    <path
       d="m 124.52575,143.60824 c 0.34687,-2.03069 0.86603,-5.92668 0.86603,-10.33265 0,-20.44476 -10.37859,-41.201931 -37.703357,-41.201931 -29.229116,0 -42.720361,23.116361 -42.720361,44.082581 0,25.93039 16.431615,42.1231 45.139275,42.1231 11.416903,0 21.963183,-1.68153 30.614303,-5.22605 l -3.45953,-17.36197 c -7.09364,2.3523 -14.35727,3.53074 -23.348372,3.53074 -12.278342,0 -22.999207,-5.04227 -23.865238,-15.78381 l 54.47725,0.16539 z M 69.876212,125.82359 c 0.691447,-6.74906 5.191591,-16.70727 16.431615,-16.70727 11.931471,0 14.701853,10.63128 14.701853,16.70727 H 69.87851 Z M 190.27977,61.771768 V 101.5219 h -0.34687 c -3.8064,-5.563736 -11.76148,-9.275953 -22.30546,-9.275953 -20.23802,0 -38.05023,16.195003 -37.88024,43.862053 0,25.64554 16.08704,42.34822 36.14588,42.34822 10.89774,0 21.27174,-4.72757 26.46333,-13.83812 h 0.51686 l 1.04062,11.98201 h 23.34607 c -0.34457,-5.56833 -0.69374,-15.18426 -0.69374,-24.63249 V 61.76947 h -26.28875 z m 0,78.218442 c 0,2.0215 -0.17229,4.0499 -0.52145,5.73142 -1.55059,7.25904 -7.7782,12.3151 -15.38871,12.3151 -10.89315,0 -17.98679,-8.77058 -17.98679,-22.6041 0,-12.98816 6.05762,-23.44945 18.16138,-23.44945 8.12736,0 13.83352,5.56603 15.391,12.48049 0.34457,1.52302 0.34457,3.21144 0.34457,4.72757 v 10.79667 z"
       id="path828"
       style="stroke-width:2.29716;fill:#183153;fill-opacity:1" />
  </g>
</svg>
