<svg width="24" height="22" viewBox="0 0 24 22" fill="none" xmlns="http://www.w3.org/2000/svg">
<path fill-rule="evenodd" clip-rule="evenodd" d="M4.53988 1.83331H7.91988C9.32988 1.83331 10.4599 2.88748 10.4599 4.1809V7.30581C10.4599 8.60748 9.32988 9.65248 7.91988 9.65248H4.53988C3.13988 9.65248 1.99988 8.60748 1.99988 7.30581V4.1809C1.99988 2.88748 3.13988 1.83331 4.53988 1.83331ZM4.53988 12.3472H7.91988C9.32988 12.3472 10.4599 13.3931 10.4599 14.6948V17.8197C10.4599 19.1122 9.32988 20.1664 7.91988 20.1664H4.53988C3.13988 20.1664 1.99988 19.1122 1.99988 17.8197V14.6948C1.99988 13.3931 3.13988 12.3472 4.53988 12.3472ZM19.46 1.83331H16.08C14.67 1.83331 13.54 2.88748 13.54 4.1809V7.30581C13.54 8.60748 14.67 9.65248 16.08 9.65248H19.46C20.86 9.65248 22 8.60748 22 7.30581V4.1809C22 2.88748 20.86 1.83331 19.46 1.83331ZM16.08 12.3472H19.46C20.86 12.3472 22 13.3931 22 14.6948V17.8197C22 19.1122 20.86 20.1664 19.46 20.1664H16.08C14.67 20.1664 13.54 19.1122 13.54 17.8197V14.6948C13.54 13.3931 14.67 12.3472 16.08 12.3472Z" fill="#183153"/>
</svg>
