<svg width="31" height="30" viewBox="0 0 31 30" fill="none" xmlns="http://www.w3.org/2000/svg">
<path d="M29.2669 2.85715L30.7139 2.76441C30.6763 2.17766 30.2881 1.6717 29.7311 1.48347C29.1741 1.29523 28.5585 1.46199 28.1727 1.90565L29.2669 2.85715ZM28.7471 8.89573C28.7471 8.09492 28.0979 7.44573 27.2971 7.44573C26.4963 7.44573 25.8471 8.09492 25.8471 8.89573H28.7471ZM15.5 10.7143V12.1643H16.95V10.7143H15.5ZM3.66017 2.85715L5.02362 2.36366C4.82505 1.81505 4.31702 1.43889 3.73434 1.40905C3.15167 1.3792 2.60786 1.70149 2.35429 2.22694L3.66017 2.85715ZM11.3571 21.4286L12.4004 22.4355C12.7443 22.0792 12.8826 21.5721 12.7671 21.0905C12.6517 20.609 12.2985 20.2197 11.8304 20.058L11.3571 21.4286ZM1.69043 25.3061V23.8561C1.05587 23.8561 0.495032 24.2687 0.306153 24.8745C0.117274 25.4803 0.344241 26.1386 0.866356 26.4992L1.69043 25.3061ZM25.7901 4.84364L24.6984 5.79789L25.2246 6.39993L26.0146 6.27616L25.7901 4.84364ZM27.8198 2.94989C27.9204 4.51853 27.8228 5.42077 27.5995 6.07195C27.3873 6.6908 27.0164 7.21621 26.2763 7.94981L28.3179 10.0094C29.2055 9.1295 29.9245 8.23231 30.3427 7.01263C30.7499 5.82527 30.8234 4.47303 30.7139 2.76441L27.8198 2.94989ZM28.7471 10.3826V8.9796H25.8471V10.3826H28.7471ZM28.7471 8.9796V8.89573H25.8471V8.9796H28.7471ZM14.05 9.28572V10.7143H16.95V9.28572H14.05ZM21.4688 1.40715C17.2414 1.40715 14.05 5.18094 14.05 9.28572H16.95C16.95 6.53519 19.0797 4.30715 21.4688 4.30715V1.40715ZM25.8471 10.3826C25.8471 19.0267 18.8349 26.4071 10.6666 26.4071V29.3071C20.584 29.3071 28.7471 20.4768 28.7471 10.3826H25.8471ZM2.29673 3.35063C3.41917 6.45178 7.61496 12.1643 15.5 12.1643V9.26429C9.20279 9.26429 5.87093 4.70469 5.02362 2.36366L2.29673 3.35063ZM2.35429 2.22694C0.254878 6.57726 -0.135862 10.8888 1.36293 14.5992C2.86466 18.3169 6.15636 21.1665 10.8838 22.7991L11.8304 20.058C7.69398 18.6294 5.16747 16.2749 4.05184 13.513C2.93326 10.7439 3.12598 7.3003 4.96606 3.48735L2.35429 2.22694ZM10.3138 20.4216C9.20186 21.5737 5.93146 23.8561 1.69043 23.8561V26.7561C6.90417 26.7561 10.886 24.0046 12.4004 22.4355L10.3138 20.4216ZM26.8819 3.88939C25.5582 2.375 23.6278 1.40715 21.4688 1.40715V4.30715C22.7375 4.30715 23.8892 4.87212 24.6984 5.79789L26.8819 3.88939ZM26.0146 6.27616C27.6376 6.02189 29.1989 5.14501 30.361 3.80865L28.1727 1.90565C27.4321 2.75733 26.4743 3.26877 25.5657 3.41111L26.0146 6.27616ZM0.866356 26.4992C4.13801 28.759 7.29561 29.3071 10.6666 29.3071V26.4071C7.6718 26.4071 5.15209 25.9349 2.5145 24.1131L0.866356 26.4992Z" fill="#183153"/>
</svg>
