<?xml version="1.0" encoding="UTF-8" standalone="no"?>
<!-- Created with Inkscape (http://www.inkscape.org/) -->

<svg
   xmlns:dc="http://purl.org/dc/elements/1.1/"
   xmlns:cc="http://creativecommons.org/ns#"
   xmlns:rdf="http://www.w3.org/1999/02/22-rdf-syntax-ns#"
   xmlns:svg="http://www.w3.org/2000/svg"
   xmlns="http://www.w3.org/2000/svg"
   xmlns:sodipodi="http://sodipodi.sourceforge.net/DTD/sodipodi-0.dtd"
   xmlns:inkscape="http://www.inkscape.org/namespaces/inkscape"
   width="8.4374952"
   height="8.4374952"
   viewBox="0 0 2.2324205 2.2324207"
   version="1.1"
   id="svg8"
   sodipodi:docname="logo-stylus.svg"
   inkscape:version="0.92.3 (2405546, 2018-03-11)">
  <defs
     id="defs2">
    <radialGradient
       gradientUnits="userSpaceOnUse"
       gradientTransform="matrix(0.00873715,0,0,0.00873715,100.29132,157.91709)"
       r="363.05649"
       cy="-125.811"
       cx="0.83660001"
       id="radialGradient-1">
      <stop
         id="stop1075"
         style="stop-color:#FFFFFF"
         offset="0" />
      <stop
         id="stop1077"
         style="stop-color:#4C6B97"
         offset="0.5" />
      <stop
         id="stop1079"
         style="stop-color:#231F20"
         offset="1" />
    </radialGradient>
  </defs>
  <sodipodi:namedview
     id="base"
     pagecolor="#ffffff"
     bordercolor="#666666"
     borderopacity="1.0"
     inkscape:pageopacity="0.0"
     inkscape:pageshadow="2"
     inkscape:zoom="32"
     inkscape:cx="5.4454774"
     inkscape:cy="2.6164536"
     inkscape:document-units="px"
     inkscape:current-layer="layer1"
     showgrid="true"
     borderlayer="true"
     inkscape:showpageshadow="false"
     inkscape:pagecheckerboard="true"
     units="px"
     inkscape:window-width="1024"
     inkscape:window-height="713"
     inkscape:window-x="0"
     inkscape:window-y="27"
     inkscape:window-maximized="1"
     fit-margin-top="0"
     fit-margin-left="0"
     fit-margin-right="0"
     fit-margin-bottom="0"
     showguides="false"
     inkscape:guide-bbox="true">
    <sodipodi:guide
       position="1.337281,-2.3072358"
       orientation="0,1"
       id="guide940"
       inkscape:locked="false" />
    <sodipodi:guide
       position="1.337451,-1.4441659"
       orientation="0,1"
       id="guide944"
       inkscape:locked="false" />
    <sodipodi:guide
       position="1.3372808,-2.3072357"
       orientation="-0.2456646,0.96935489"
       id="guide950"
       inkscape:locked="false" />
    <sodipodi:guide
       position="-0.31381705,-1.8190059"
       orientation="0,1"
       id="guide952"
       inkscape:locked="false" />
    <sodipodi:guide
       position="1.337451,-1.4441659"
       orientation="-0.20695736,0.97834996"
       id="guide954"
       inkscape:locked="false" />
    <sodipodi:guide
       position="0.44963105,-1.2242459"
       orientation="0,1"
       id="guide956"
       inkscape:locked="false" />
    <sodipodi:guide
       position="3.7183873,1.2453089"
       orientation="0,1"
       id="guide5093"
       inkscape:locked="false" />
    <sodipodi:guide
       position="3.794392,0.98221551"
       orientation="0,1"
       id="guide5095"
       inkscape:locked="false" />
    <sodipodi:guide
       position="0,1.3663249"
       orientation="1,0"
       id="guide5100"
       inkscape:locked="false" />
    <sodipodi:guide
       position="2.2324218,1.4913819"
       orientation="1,0"
       id="guide5102"
       inkscape:locked="false" />
  </sodipodi:namedview>
  <metadata
     id="metadata5">
    <rdf:RDF>
      <cc:Work
         rdf:about="">
        <dc:format>image/svg+xml</dc:format>
        <dc:type
           rdf:resource="http://purl.org/dc/dcmitype/StillImage" />
        <dc:title></dc:title>
      </cc:Work>
    </rdf:RDF>
  </metadata>
  <g
     inkscape:label="Capa 1"
     inkscape:groupmode="layer"
     id="layer1"
     transform="translate(-99.94735,-156.53934)">
    <path
       style="opacity:1;fill:#28fefe;fill-rule:evenodd;stroke-width:0.2501604;fill-opacity:1"
       d="m 100.3275,156.54082 h 1.47213 c 0.14575,0 0.26309,0.11734 0.26309,0.26309 v 0.72348 l 0.11705,-9.4e-4 v 0.2631 l -0.11705,0.001 v 0.71625 c 0,0.14575 -0.11734,0.26309 -0.26309,0.26309 h -1.47213 c -0.14575,0 -0.26309,-0.11734 -0.26309,-0.26309 v -0.71689 l -0.11706,-3.6e-4 v -0.2631 l 0.11706,-9e-5 v -0.72284 c 0,-0.14575 0.11734,-0.26309 0.26309,-0.26309 z"
       id="rect1386"
       inkscape:connector-curvature="0"
       sodipodi:nodetypes="cssccccssssccccssc" />
    <path
       inkscape:connector-curvature="0"
       id="path1368"
       d="m 100.30678,158.65732 c -0.11057,-0.0481 -0.11809,-0.0784 -0.12776,-0.51438 l -0.009,-0.3611 c 0,-0.0782 -0.13095,-0.0783 -0.13095,-0.0783 v -0.0982 c 0.029,-2.7e-4 0.11303,-0.0312 0.12548,-0.0545 0.0213,-0.0399 0.008,-0.1179 0.0142,-0.38361 0.008,-0.37174 0.0114,-0.40414 0.0452,-0.44977 0.0645,-0.0869 0.10091,-0.0908 0.83552,-0.0908 0.73463,0 0.77104,0.004 0.83553,0.0908 0.0338,0.0456 0.0371,0.0781 0.0452,0.44464 l 0.009,0.39544 c 0,0 0.0169,0.0295 0.13885,0.0478 v 0.0982 c -0.11979,0.0129 -0.13255,0.0337 -0.13835,0.0596 -0.005,0.0213 -0.0107,0.20398 -0.0133,0.40588 -0.005,0.41033 -0.0133,0.44123 -0.12753,0.48897 -0.0855,0.0357 -1.41985,0.0351 -1.50216,-7.4e-4 z m 0.99614,-0.2362 c 0.27528,-0.10585 0.39547,-0.39762 0.27031,-0.65618 -0.0525,-0.10846 -0.15802,-0.18708 -0.38416,-0.28625 -0.10799,-0.0474 -0.21461,-0.10327 -0.23694,-0.12424 -0.0558,-0.0525 -0.054,-0.13544 0.004,-0.19007 0.0597,-0.0561 0.25324,-0.0685 0.4004,-0.0258 0.0582,0.0169 0.10669,0.0226 0.11565,0.0137 0.008,-0.008 0.0304,-0.0679 0.0488,-0.13196 0.0285,-0.0995 0.0298,-0.12005 0.009,-0.14079 -0.0779,-0.0779 -0.5013,-0.0972 -0.67227,-0.0307 -0.27908,0.10853 -0.40513,0.38572 -0.28502,0.62675 0.0656,0.13155 0.1913,0.21864 0.48284,0.33439 0.15486,0.0615 0.2217,0.16546 0.1693,0.26337 -0.0533,0.0996 -0.27709,0.12252 -0.50171,0.0514 -0.0744,-0.0236 -0.13316,-0.0337 -0.14148,-0.0245 -0.008,0.009 -0.0274,0.0695 -0.0435,0.13528 -0.0348,0.14251 -0.0279,0.15586 0.1,0.1923 0.14344,0.0409 0.1667,0.0433 0.36916,0.0381 0.14944,-0.004 0.21475,-0.0137 0.29546,-0.0447 z"
       style="fill:#285959;fill-opacity:1;stroke-width:0.01744079"
       sodipodi:nodetypes="cccccsccscccccccccccccccccccccccccccccc" />
  </g>
</svg>
