<?xml version="1.0" encoding="UTF-8" standalone="no"?>
<svg
   xmlns:dc="http://purl.org/dc/elements/1.1/"
   xmlns:cc="http://creativecommons.org/ns#"
   xmlns:rdf="http://www.w3.org/1999/02/22-rdf-syntax-ns#"
   xmlns:svg="http://www.w3.org/2000/svg"
   xmlns="http://www.w3.org/2000/svg"
   id="svg8"
   version="1.1"
   viewBox="0 0 6.3939544 4.7950852"
   height="18.123156"
   width="24.166128">
  <defs
     id="defs2" />
  <metadata
     id="metadata5">
    <rdf:RDF>
      <cc:Work
         rdf:about="">
        <dc:format>image/svg+xml</dc:format>
        <dc:type
           rdf:resource="http://purl.org/dc/dcmitype/StillImage" />
        <dc:title></dc:title>
      </cc:Work>
    </rdf:RDF>
  </metadata>
  <g
     transform="translate(-98.066828,-155.52429)"
     id="layer1">
    <g
       style="fill:#cd6799"
       transform="matrix(0.02504557,0,0,0.02504557,98.055455,155.51292)"
       id="g1014">
      <path
         d="m 220.28124,110.51366 c -8.90638,0.0466 -16.647,2.19162 -23.1286,5.36248 -2.37814,-4.70966 -4.75628,-8.90638 -5.17596,-11.98397 -0.4663,-3.59053 -1.02586,-5.782152 -0.4663,-10.072134 0.55956,-4.289981 3.0776,-10.398542 3.03097,-10.864845 -0.0466,-0.466302 -0.55957,-2.657923 -5.68889,-2.704554 -5.12933,-0.04663 -9.5592,0.979235 -10.07213,2.331512 -0.51294,1.352277 -1.49217,4.429873 -2.14499,7.600729 -0.88598,4.663024 -10.25866,21.310022 -15.62113,30.029872 -1.72532,-3.40401 -3.21749,-6.38834 -3.5439,-8.76648 -0.4663,-3.59053 -1.02587,-5.78215 -0.4663,-10.07214 0.55956,-4.289977 3.07759,-10.398538 3.03096,-10.86484 -0.0466,-0.466303 -0.55956,-2.657924 -5.68889,-2.704554 -5.12932,-0.04663 -9.5592,0.979235 -10.07213,2.331512 -0.51293,1.352277 -1.07249,4.523133 -2.14499,7.600728 -1.07249,3.077594 -13.52277,30.869214 -16.78688,38.050274 -1.67869,3.68379 -3.12423,6.62149 -4.15009,8.62659 v 0 c 0,0 -0.0466,0.13989 -0.18653,0.37304 -0.88597,1.72532 -1.3989,2.65793 -1.3989,2.65793 0,0 0,0 0,0.0466 -0.69946,1.25901 -1.44554,2.42477 -1.81858,2.42477 -0.27978,0 -0.79272,-3.35738 0.0933,-7.92714 1.86521,-9.65246 6.29508,-24.66739 6.24845,-25.18033 0,-0.27978 0.83935,-2.89107 -2.89107,-4.24335 -3.63716,-1.35227 -4.94281,0.88598 -5.26922,0.88598 -0.32641,0 -0.55956,0.79271 -0.55956,0.79271 0,0 4.05683,-16.880146 -7.74062,-16.880146 -7.36758,0 -17.532972,8.067036 -22.569038,15.341346 -3.170856,1.72532 -9.93224,5.40911 -17.159927,9.37268 -2.751184,1.5388 -5.595628,3.0776 -8.253552,4.52313 -0.186521,-0.18652 -0.373042,-0.41967 -0.559563,-0.60619 C 44.858288,110.74681 18.465574,99.975228 19.584699,79.504554 20.004372,72.043716 22.569035,52.459016 70.271767,28.677596 109.53443,9.3260474 140.77668,14.688525 146.18579,26.579235 c 7.74062,16.973406 -16.74025,48.495446 -57.308559,53.065209 -15.481238,1.725319 -23.5949,-4.243351 -25.64663,-6.481603 -2.144991,-2.331511 -2.471403,-2.471402 -3.264117,-2.0051 -1.305646,0.699454 -0.466302,2.797815 0,4.010201 1.212387,3.170856 6.201822,8.766484 14.641895,11.517668 7.460838,2.424772 25.600001,3.777049 47.562841,-4.709654 24.57413,-9.512568 43.78579,-35.951912 38.14353,-58.101275 C 154.67249,1.3989071 117.36831,-6.0153005 82.069217,6.5282331 61.08561,13.989071 38.330055,25.739891 21.962841,41.034608 2.5180328,59.220401 -0.55956284,75.028051 0.69945355,81.649545 5.2225865,105.15118 37.630601,120.4459 50.593807,131.77705 c -0.652823,0.37304 -1.259017,0.69945 -1.771949,0.97923 -6.481603,3.21749 -31.195629,16.13407 -37.35082,29.79673 -6.9945353,15.48123 1.119126,26.57923 6.481603,28.0714 16.646995,4.61639 33.760292,-3.68379 42.946448,-17.39308 9.186157,-13.70929 8.067031,-31.52204 3.82368,-39.68233 -0.04663,-0.0933 -0.09326,-0.18652 -0.186521,-0.27978 1.678688,-0.97924 3.404007,-2.0051 5.082695,-2.98434 3.310747,-1.95847 6.574864,-3.77705 9.372678,-5.26921 -1.585428,4.33661 -2.751184,9.51256 -3.310747,16.9734 -0.699453,8.76649 2.891075,20.14426 7.600729,24.62077 2.098361,1.95847 4.569763,2.0051 6.155191,2.0051 5.502368,0 7.973771,-4.56977 10.724956,-9.97887 3.35738,-6.6215 6.38834,-14.31549 6.38834,-14.31549 0,0 -3.77705,20.79709 6.4816,20.79709 3.73042,0 7.50747,-4.84955 9.18616,-7.32095 v 0.0466 c 0,0 0.0933,-0.13989 0.27978,-0.4663 0.37304,-0.60619 0.6062,-0.97924 0.6062,-0.97924 v -0.0933 c 1.49216,-2.61129 4.84954,-8.53333 9.83897,-18.37231 6.43498,-12.68342 12.6368,-28.5377 12.6368,-28.5377 0,0 0.55956,3.8703 2.4714,10.30528 1.11913,3.77705 3.45064,7.92714 5.31585,11.93734 -1.49217,2.09836 -2.42477,3.26411 -2.42477,3.26411 0,0 0,0 0.0466,0.0466 -1.21239,1.58543 -2.51804,3.31075 -3.96357,4.98944 -5.0827,6.06193 -11.14463,13.00984 -11.98397,15.01494 -0.97924,2.37814 -0.74609,4.10346 1.11912,5.50236 1.35228,1.02587 3.77705,1.16576 6.24845,1.02587 4.56977,-0.32641 7.78725,-1.44554 9.37268,-2.14499 2.4714,-0.88598 5.36248,-2.23825 8.06703,-4.24335 4.98944,-3.68379 8.0204,-8.95301 7.74062,-15.90091 -0.13989,-3.82368 -1.39891,-7.64736 -2.9377,-11.23789 0.4663,-0.65282 0.88597,-1.30565 1.35227,-1.95847 7.88051,-11.51767 13.98907,-24.15446 13.98907,-24.15446 0,0 0.55957,3.87031 2.47141,10.30528 0.9326,3.26412 2.84444,6.80801 4.52313,10.25865 -7.41421,6.0153 -11.98397,13.00984 -13.61603,17.5796 -2.93771,8.4867 -0.65282,12.31038 3.68379,13.19636 1.95847,0.41967 4.75628,-0.51294 6.80801,-1.39891 2.6113,-0.83934 5.68889,-2.28488 8.6266,-4.42987 4.98943,-3.68379 9.79235,-8.81312 9.51257,-15.76102 -0.1399,-3.17086 -0.97924,-6.29508 -2.145,-9.32605 6.29509,-2.61129 14.40875,-4.05683 24.76066,-2.84444 22.19599,2.61129 26.57924,16.46047 25.73989,22.28925 -0.83934,5.82878 -5.50237,8.99963 -7.04116,9.97887 -1.5388,0.97923 -2.05174,1.30565 -1.91184,2.0051 0.18652,1.02587 0.9326,0.97923 2.23825,0.79271 1.81858,-0.32641 11.65756,-4.70965 12.07723,-15.4346 0.69945,-13.70929 -12.35701,-28.6776 -35.43898,-28.53771 z M 49.055009,168.24189 c -7.367577,8.0204 -17.626229,11.05137 -22.056102,8.48671 -4.756284,-2.75119 -2.891075,-14.59527 6.155191,-23.08197 5.502368,-5.17596 12.590164,-9.97887 17.299818,-12.91658 1.072496,-0.65282 2.657924,-1.58542 4.569763,-2.75118 0.326412,-0.18652 0.512933,-0.27978 0.512933,-0.27978 v 0 c 0.373042,-0.23315 0.746084,-0.4663 1.119126,-0.69945 3.310746,12.12386 0.13989,22.80218 -7.600729,31.24225 z m 53.624771,-36.46484 c -2.56466,6.24845 -7.927139,22.24262 -11.191255,21.35665 -2.797815,-0.74609 -4.523133,-12.86995 -0.559563,-24.85392 2.0051,-6.0153 6.248451,-13.19636 8.719854,-15.99417 4.010204,-4.4765 8.440074,-5.96867 9.512564,-4.15009 1.35228,2.37814 -4.89617,19.72459 -6.4816,23.64153 z m 44.2521,21.17013 c -1.0725,0.55956 -2.09837,0.9326 -2.56467,0.65282 -0.32641,-0.18652 0.4663,-0.93261 0.4663,-0.93261 0,0 5.549,-5.96867 7.74062,-8.67322 1.25902,-1.58543 2.75119,-3.45064 4.33662,-5.549 v 0.6062 c 0,7.13442 -6.90128,11.93734 -9.97887,13.89581 z m 34.13333,-7.78725 c -0.79272,-0.55957 -0.65282,-2.42478 2.0051,-8.25356 1.02586,-2.28488 3.45064,-6.10856 7.60073,-9.79234 0.4663,1.49216 0.79271,2.9377 0.74608,4.28998 -0.0466,8.99963 -6.4816,12.35701 -10.35191,13.75592 z"
         id="path1012" />
    </g>
  </g>
</svg>
