<?xml version="1.0" encoding="UTF-8" standalone="no"?>
<!-- Created with Inkscape (http://www.inkscape.org/) -->

<svg
   xmlns:dc="http://purl.org/dc/elements/1.1/"
   xmlns:cc="http://creativecommons.org/ns#"
   xmlns:rdf="http://www.w3.org/1999/02/22-rdf-syntax-ns#"
   xmlns:svg="http://www.w3.org/2000/svg"
   xmlns="http://www.w3.org/2000/svg"
   xmlns:sodipodi="http://sodipodi.sourceforge.net/DTD/sodipodi-0.dtd"
   xmlns:inkscape="http://www.inkscape.org/namespaces/inkscape"
   width="35.687622"
   height="8.7227421"
   viewBox="0 0 9.4423494 2.3078923"
   version="1.1"
   id="svg8"
   sodipodi:docname="logo-svelte.svg"
   inkscape:version="0.92.3 (2405546, 2018-03-11)">
  <defs
     id="defs2">
    <radialGradient
       gradientUnits="userSpaceOnUse"
       gradientTransform="matrix(0.00873715,0,0,0.00873715,100.29132,157.91709)"
       r="363.05649"
       cy="-125.811"
       cx="0.83660001"
       id="radialGradient-1">
      <stop
         id="stop1075"
         style="stop-color:#FFFFFF"
         offset="0" />
      <stop
         id="stop1077"
         style="stop-color:#4C6B97"
         offset="0.5" />
      <stop
         id="stop1079"
         style="stop-color:#231F20"
         offset="1" />
    </radialGradient>
  </defs>
  <sodipodi:namedview
     id="base"
     pagecolor="#ffffff"
     bordercolor="#666666"
     borderopacity="1.0"
     inkscape:pageopacity="0.0"
     inkscape:pageshadow="2"
     inkscape:zoom="5.6568543"
     inkscape:cx="20.393275"
     inkscape:cy="1.159447"
     inkscape:document-units="px"
     inkscape:current-layer="layer1"
     showgrid="false"
     borderlayer="true"
     inkscape:showpageshadow="false"
     inkscape:pagecheckerboard="true"
     units="px"
     inkscape:window-width="1024"
     inkscape:window-height="713"
     inkscape:window-x="0"
     inkscape:window-y="27"
     inkscape:window-maximized="1"
     fit-margin-top="0"
     fit-margin-left="0"
     fit-margin-right="0"
     fit-margin-bottom="0"
     showguides="false"
     inkscape:guide-bbox="true">
    <sodipodi:guide
       position="4.7421468,1.4823712"
       orientation="0,1"
       id="guide924"
       inkscape:locked="false" />
    <sodipodi:guide
       position="4.7421455,0.65683121"
       orientation="0,1"
       id="guide936"
       inkscape:locked="false" />
    <sodipodi:guide
       position="6.6684556,0.65683101"
       orientation="0.99650508,-0.083532144"
       id="guide938"
       inkscape:locked="false" />
    <sodipodi:guide
       position="4.7419755,-2.2721188"
       orientation="0,1"
       id="guide940"
       inkscape:locked="false" />
    <sodipodi:guide
       position="4.7421455,-0.12149879"
       orientation="0,1"
       id="guide942"
       inkscape:locked="false" />
    <sodipodi:guide
       position="4.7421455,-1.4090488"
       orientation="0,1"
       id="guide944"
       inkscape:locked="false" />
    <sodipodi:guide
       position="5.7817756,-0.12149899"
       orientation="0.99701145,-0.077253953"
       id="guide946"
       inkscape:locked="false" />
    <sodipodi:guide
       position="4.7419753,-2.2721187"
       orientation="-0.2456646,0.96935489"
       id="guide950"
       inkscape:locked="false" />
    <sodipodi:guide
       position="3.0908775,-1.7838888"
       orientation="0,1"
       id="guide952"
       inkscape:locked="false" />
    <sodipodi:guide
       position="4.7421455,-1.4090488"
       orientation="-0.20695736,0.97834996"
       id="guide954"
       inkscape:locked="false" />
    <sodipodi:guide
       position="3.8543256,-1.1891288"
       orientation="0,1"
       id="guide956"
       inkscape:locked="false" />
    <sodipodi:guide
       position="4.7444755,3.0727415"
       orientation="1,0"
       id="guide958"
       inkscape:locked="false" />
  </sodipodi:namedview>
  <metadata
     id="metadata5">
    <rdf:RDF>
      <cc:Work
         rdf:about="">
        <dc:format>image/svg+xml</dc:format>
        <dc:type
           rdf:resource="http://purl.org/dc/dcmitype/StillImage" />
        <dc:title></dc:title>
      </cc:Work>
    </rdf:RDF>
  </metadata>
  <g
     inkscape:label="Capa 1"
     inkscape:groupmode="layer"
     id="layer1"
     transform="translate(-96.542655,-156.49898)">
    <g
       id="g1199"
       transform="matrix(0.01847312,0,0,0.01847312,96.542655,156.49898)">
      <path
         id="path1191"
         d="m 166.66279,96.865252 c -5.42099,0.136416 -10.75632,-1.371204 -15.30423,-4.324559 -4.2489,-2.801955 -7.40412,-6.980748 -8.93568,-11.834451 l 9.31583,-3.422592 c 1.29079,2.981399 3.4003,5.53581 6.08388,7.367 2.72383,1.825081 5.94196,2.770698 9.22013,2.70925 3.15121,0.164567 6.26094,-0.776739 8.7919,-2.661285 2.23282,-1.874668 3.44868,-4.694052 3.27947,-7.604594 0.0129,-1.33713 -0.29688,-2.657645 -0.90297,-3.849593 -0.52733,-1.066492 -1.21672,-2.044837 -2.04365,-2.900218 -1.04606,-0.952154 -2.23241,-1.737674 -3.5174,-2.328987 -1.58501,-0.790867 -2.89981,-1.392922 -3.94441,-1.806166 -1.04572,-0.410567 -2.58239,-0.965029 -4.61001,-1.663387 -2.53583,-0.886723 -4.43707,-1.583519 -5.70372,-2.090387 -1.71644,-0.730488 -3.3834,-1.572147 -4.99028,-2.51962 -1.72935,-0.917531 -3.30164,-2.104477 -4.65786,-3.516292 -1.17343,-1.3785 -2.11993,-2.93502 -2.80395,-4.611123 -2.69171,-6.553118 -0.89285,-14.093302 4.46734,-18.72548 3.80285,-3.358452 8.9677,-5.038124 15.49452,-5.038124 5.44884,0 9.93214,1.204036 13.44988,3.61211 3.41438,2.27003 5.92132,5.668912 7.08177,9.601394 l -9.12531,3.041325 c -0.91676,-2.059506 -2.4649,-3.77399 -4.42049,-4.895457 -2.36499,-1.311997 -5.04343,-1.953074 -7.74615,-1.85402 -2.65086,-0.152063 -5.27677,0.583899 -7.46248,2.091504 -1.81147,1.403956 -2.82294,3.604234 -2.70914,5.893242 0.0161,1.749159 0.77632,3.408695 2.09039,4.56327 1.26336,1.243448 2.74585,2.242463 4.37263,2.946621 1.5218,0.633884 3.83517,1.489337 6.94011,2.566359 1.89979,0.698283 3.30938,1.221177 4.22874,1.568683 0.91937,0.347505 2.26615,0.933572 4.04034,1.758201 1.42233,0.629426 2.78949,1.376757 4.08719,2.234172 1.16202,0.835812 2.27293,1.740478 3.32677,2.709138 1.14592,0.993949 2.12508,2.165179 2.90022,3.469107 0.7379,1.352552 1.31202,2.788201 1.71024,4.276594 0.48535,1.748856 0.72561,3.556619 0.71431,5.371538 0,6.211226 -2.12352,11.074668 -6.36974,14.590327 -4.24584,3.518113 -9.69524,5.276946 -16.34819,5.2765 z m 60.92923,-1.140455 -22.81368,-66.539698 h 10.64704 l 15.11326,46.387869 c 0.83575,2.494659 1.53397,5.033303 2.0915,7.604483 0.55658,-2.571413 1.25482,-5.110109 2.0915,-7.604483 l 14.92374,-46.387869 h 10.55122 l -22.71897,66.539698 z m 52.75496,0 V 29.185545 h 41.25482 v 9.315946 h -31.3682 v 18.250513 h 20.24575 V 66.06795 H 290.2336 v 20.340901 h 33.4587 v 9.315946 z m 68.53438,1.12e-4 V 29.185545 h 9.88673 v 57.0339 h 32.50865 v 9.505464 z m 79.6556,-57.034012 v 57.0339 h -9.88662 v -57.0339 H 399.8306 v -9.505352 h 47.52721 v 9.505464 z m 39.25712,57.0339 V 29.185545 h 41.25493 v 9.315946 h -31.36764 v 18.250513 h 20.24575 v 9.315946 h -20.24575 v 20.340901 h 33.45859 v 9.315946 z"
         inkscape:connector-curvature="0"
         style="fill:#4a4a55" />
      <g
         id="g1197">
        <path
           id="path1193"
           d="M 97.328731,16.529998 C 85.727859,-0.07386073 62.816138,-4.9953073 46.249871,5.5595894 L 17.155443,24.102802 C 9.208126,29.102544 3.7341084,37.218313 2.0757602,46.459912 0.68795211,54.158706 1.9078036,62.100459 5.5421898,69.027846 3.0518067,72.805666 1.3532721,77.049213 0.54924164,81.502017 -1.1251842,90.921039 1.0650264,100.61748 6.6254212,108.40232 18.228747,125.00774 41.140691,129.92707 57.704393,119.37273 l 29.094316,-18.54321 c 7.94781,-4.999239 13.421991,-13.11525 15.079681,-22.357115 1.38744,-7.698754 0.16839,-15.640338 -3.464308,-22.568491 2.489698,-3.777754 4.187518,-8.021122 4.990828,-12.473614 1.67552,-9.419048 -0.51479,-19.115912 -6.076179,-26.900302"
           inkscape:connector-curvature="0"
           style="fill:#ff3e00" />
        <path
           id="path1195"
           d="m 43.407434,109.96453 c -9.37789,2.43815 -19.281002,-1.23276 -24.80389,-9.19436 -3.344631,-4.681243 -4.662132,-10.512611 -3.654944,-16.177078 0.168812,-0.920602 0.401124,-1.828419 0.695272,-2.716947 l 0.547918,-1.670748 1.490489,1.094832 c 3.442454,2.529354 7.291451,4.452457 11.381124,5.686435 l 1.081335,0.328059 -0.0995,1.079216 c -0.132177,1.535316 0.283547,3.067844 1.173473,4.325898 1.662107,2.39832 4.64391,3.505051 7.468284,2.771939 0.632268,-0.169025 1.234916,-0.433896 1.78698,-0.785401 l 29.09454,-18.541093 c 1.439453,-0.906417 2.431504,-2.376257 2.733678,-4.050266 0.301592,-1.707281 -0.09534,-3.46415 -1.101636,-4.875936 -1.663084,-2.398772 -4.645573,-3.505967 -7.471073,-2.7735 -0.631478,0.169016 -1.233364,0.433695 -1.784749,0.784843 L 50.842143,72.327959 C 49.016506,73.488732 47.02418,74.363657 44.934176,74.922427 35.556021,77.360844 25.652519,73.689864 20.129505,65.727955 16.784904,61.046739 15.467404,55.215417 16.474561,49.550986 17.471696,43.993765 20.763843,39.113735 25.543319,36.108142 L 54.635962,17.565487 c 1.826436,-1.162711 3.820226,-2.038737 5.911983,-2.597591 9.37796,-2.438252 19.281193,1.232667 24.804113,9.19436 3.344584,4.681266 4.662081,10.512615 3.654944,16.177081 -0.16954,0.920441 -0.401839,1.828209 -0.695272,2.716946 l -0.547918,1.670749 -1.489819,-1.093159 c -3.442186,-2.530845 -7.29156,-4.454834 -11.381905,-5.688889 l -1.081224,-0.328171 0.0995,-1.079216 c 0.131109,-1.535185 -0.284518,-3.067317 -1.173473,-4.325786 -1.662106,-2.398321 -4.64391,-3.505051 -7.468284,-2.771939 -0.632267,0.169024 -1.234915,0.433896 -1.78698,0.785401 L 34.38653,48.767147 c -1.439703,0.905843 -2.431406,2.376068 -2.732006,4.050266 -0.303458,1.7072 0.09281,3.464699 1.099518,4.876493 1.663084,2.398772 4.645572,3.505967 7.471072,2.7735 0.632154,-0.169348 1.234754,-0.434199 1.786981,-0.785401 l 11.101141,-7.074858 c 1.824847,-1.162304 3.817083,-2.038003 5.907298,-2.596588 9.378118,-2.438332 19.281541,1.232636 24.804559,9.194472 3.344601,4.681216 4.662101,10.512538 3.654944,16.176969 -0.997762,5.557521 -4.289678,10.437978 -9.068758,13.444964 L 49.319082,107.36694 c -1.826435,1.16271 -3.820226,2.03874 -5.911982,2.59759"
           inkscape:connector-curvature="0"
           style="fill:#ffffff" />
      </g>
    </g>
  </g>
</svg>
