<?xml version="1.0" encoding="UTF-8" standalone="no"?>
<svg
   xmlns:dc="http://purl.org/dc/elements/1.1/"
   xmlns:cc="http://creativecommons.org/ns#"
   xmlns:rdf="http://www.w3.org/1999/02/22-rdf-syntax-ns#"
   xmlns:svg="http://www.w3.org/2000/svg"
   xmlns="http://www.w3.org/2000/svg"
   id="svg8"
   version="1.1"
   viewBox="0 0 6.4417506 9.0236605"
   height="34.105171"
   width="24.346775">
  <defs
     id="defs2" />
  <metadata
     id="metadata5">
    <rdf:RDF>
      <cc:Work
         rdf:about="">
        <dc:format>image/svg+xml</dc:format>
        <dc:type
           rdf:resource="http://purl.org/dc/dcmitype/StillImage" />
        <dc:title></dc:title>
      </cc:Work>
    </rdf:RDF>
  </metadata>
  <g
     transform="translate(-98.06629,-153.42752)"
     id="layer1">
    <path
       id="path838"
       d="m 103.90408,161.74655 -2.61693,0.70463 -2.616973,-0.70463 -0.603887,-6.54234 h 6.44175 z"
       style="fill:#2062af;stroke-width:0.01921249" />
    <path
       id="path840"
       d="m 101.28713,155.73413 v 6.15505 l 0.006,0.002 2.11777,-0.57026 0.48882,-5.5864 z"
       style="fill:#3c9cd7;stroke-width:0.01921249" />
    <path
       id="path948"
       d="m 99.243093,156.53445 h 4.047917 l -0.0799,0.79005 -1.92631,0.82554 h 1.92631 l -0.20459,2.44072 -1.72189,0.48823 -1.651098,-0.48823 -0.103603,-1.23331 h 0.816691 l 0.0533,0.63916 0.88488,0.21931 0.9569,-0.21992 0.0827,-1.06763 -2.847658,-0.006 -0.06213,-0.77233 2.066438,-0.82554 h -2.140379 z"
       style="fill:#ffffff;fill-opacity:1;stroke:none;stroke-width:0.26458335px;stroke-linecap:butt;stroke-linejoin:miter;stroke-opacity:1" />
    <path
       style="stroke-width:0.01921249"
       id="path842"
       d="m 99.801927,154.24301 v -0.3894 h 0.568133 v -0.42609 h -0.994228 v 1.20431 h 0.994228 v -0.38882 z m 1.590143,-0.3894 h 0.3972 v -0.42609 h -0.99433 v 0.42609 c 0.13303,0.13303 0.20241,0.1967 0.3948,0.38909 -0.11247,0 -0.3948,4.1e-4 -0.3948,3.9e-4 v 0.38874 h 0.99433 v -0.38882 z m 1.40927,0 h 0.39718 v -0.42609 h -0.99436 v 0.42609 c 0.13303,0.13303 0.20244,0.1967 0.39484,0.38909 -0.11244,0 -0.39484,4.1e-4 -0.39484,3.9e-4 v 0.38874 h 0.99438 v -0.38882 z" />
    <path
       id="path851"
       d="m 99.41176,158.15004 0.06211,0.77233 1.81091,-0.77429 v -0.7781 z"
       style="fill:url(#a);stroke-width:0.01921249" />
    <path
       id="path858"
       d="m 103.29101,156.53445 -2.00621,0.83553 v 0.7781 l 1.92634,-0.8236 z"
       style="fill:url(#b);stroke-width:0.01921249" />
    <path
       id="path865"
       d="m 99.414642,158.15004 0.06213,0.77233 2.778608,0.009 -0.0622,1.02975 -0.91432,0.25741 -0.87894,-0.22192 -0.0533,-0.63916 h -0.816691 l 0.106533,1.23392 1.651218,0.48823 1.64227,-0.47937 0.21306,-2.45004 z"
       style="fill:url(#c);stroke-width:0.01921249" />
    <path
       id="path874"
       d="m 99.243093,156.53445 h 4.047917 l -0.0799,0.79005 h -3.870409 z"
       style="fill:url(#d);stroke-width:0.01921249" />
    <path
       id="path876"
       d="m 101.28713,156.53445 h -2.044037 l 0.09775,0.79005 h 1.946287 z"
       style="opacity:0.05;stroke-width:0.01922345" />
    <path
       id="path960"
       d="m 101.28713,157.40136 v 1.52701 l -1.810358,-0.006 -0.06213,-0.77233 z"
       style="fill:#f3f3f3;stroke:none;stroke-width:0.26458335px;stroke-linecap:butt;stroke-linejoin:miter;stroke-opacity:1;fill-opacity:1;opacity:1" />
    <path
       id="path962"
       d="m 101.2848,160.21592 -1.7e-4,0.86307 -1.648168,-0.48762 -0.106533,-1.23392 h 0.816691 l 0.0533,0.63916 z"
       style="fill:#f3f3f3;stroke:none;stroke-width:0.26458335px;stroke-linecap:butt;stroke-linejoin:miter;stroke-opacity:1;fill-opacity:1" />
  </g>
</svg>
