<?xml version="1.0" encoding="UTF-8" standalone="no"?>
<!-- Created with Inkscape (http://www.inkscape.org/) -->

<svg
   xmlns:dc="http://purl.org/dc/elements/1.1/"
   xmlns:cc="http://creativecommons.org/ns#"
   xmlns:rdf="http://www.w3.org/1999/02/22-rdf-syntax-ns#"
   xmlns:svg="http://www.w3.org/2000/svg"
   xmlns="http://www.w3.org/2000/svg"
   xmlns:sodipodi="http://sodipodi.sourceforge.net/DTD/sodipodi-0.dtd"
   xmlns:inkscape="http://www.inkscape.org/namespaces/inkscape"
   width="17.54533"
   height="8.8867817"
   viewBox="0 0 4.6422016 2.3512945"
   version="1.1"
   id="svg8"
   sodipodi:docname="logo-php.svg"
   inkscape:version="0.92.3 (2405546, 2018-03-11)">
  <defs
     id="defs2">
    <radialGradient
       gradientUnits="userSpaceOnUse"
       gradientTransform="matrix(0.00873715,0,0,0.00873715,100.29132,157.91709)"
       r="363.05649"
       cy="-125.811"
       cx="0.83660001"
       id="radialGradient-1">
      <stop
         id="stop1075"
         style="stop-color:#FFFFFF"
         offset="0" />
      <stop
         id="stop1077"
         style="stop-color:#4C6B97"
         offset="0.5" />
      <stop
         id="stop1079"
         style="stop-color:#231F20"
         offset="1" />
    </radialGradient>
  </defs>
  <sodipodi:namedview
     id="base"
     pagecolor="#ffffff"
     bordercolor="#666666"
     borderopacity="1.0"
     inkscape:pageopacity="0.0"
     inkscape:pageshadow="2"
     inkscape:zoom="22.627417"
     inkscape:cx="3.4680247"
     inkscape:cy="9.2162305"
     inkscape:document-units="px"
     inkscape:current-layer="layer1"
     showgrid="false"
     borderlayer="true"
     inkscape:showpageshadow="false"
     inkscape:pagecheckerboard="true"
     units="px"
     inkscape:window-width="1024"
     inkscape:window-height="713"
     inkscape:window-x="0"
     inkscape:window-y="27"
     inkscape:window-maximized="1"
     fit-margin-top="0"
     fit-margin-left="0"
     fit-margin-right="0"
     fit-margin-bottom="0"
     showguides="false"
     inkscape:guide-bbox="true">
    <sodipodi:guide
       position="2.3420708,1.4923833"
       orientation="0,1"
       id="guide924"
       inkscape:locked="false" />
    <sodipodi:guide
       position="2.3420695,0.6668433"
       orientation="0,1"
       id="guide936"
       inkscape:locked="false" />
    <sodipodi:guide
       position="4.2683797,0.6668431"
       orientation="0.99650508,-0.083532144"
       id="guide938"
       inkscape:locked="false" />
    <sodipodi:guide
       position="2.3418995,-2.2621067"
       orientation="0,1"
       id="guide940"
       inkscape:locked="false" />
    <sodipodi:guide
       position="2.3420695,-0.1114867"
       orientation="0,1"
       id="guide942"
       inkscape:locked="false" />
    <sodipodi:guide
       position="2.3420695,-1.3990367"
       orientation="0,1"
       id="guide944"
       inkscape:locked="false" />
    <sodipodi:guide
       position="3.3816997,-0.1114869"
       orientation="0.99701145,-0.077253953"
       id="guide946"
       inkscape:locked="false" />
    <sodipodi:guide
       position="2.3418993,-2.2621066"
       orientation="-0.2456646,0.96935489"
       id="guide950"
       inkscape:locked="false" />
    <sodipodi:guide
       position="0.69080156,-1.7738767"
       orientation="0,1"
       id="guide952"
       inkscape:locked="false" />
    <sodipodi:guide
       position="2.3420695,-1.3990367"
       orientation="-0.20695736,0.97834996"
       id="guide954"
       inkscape:locked="false" />
    <sodipodi:guide
       position="1.4542496,-1.1791167"
       orientation="0,1"
       id="guide956"
       inkscape:locked="false" />
    <sodipodi:guide
       position="2.3443995,3.0827536"
       orientation="1,0"
       id="guide958"
       inkscape:locked="false" />
  </sodipodi:namedview>
  <metadata
     id="metadata5">
    <rdf:RDF>
      <cc:Work
         rdf:about="">
        <dc:format>image/svg+xml</dc:format>
        <dc:type
           rdf:resource="http://purl.org/dc/dcmitype/StillImage" />
        <dc:title></dc:title>
      </cc:Work>
    </rdf:RDF>
  </metadata>
  <g
     inkscape:label="Capa 1"
     inkscape:groupmode="layer"
     id="layer1"
     transform="translate(-98.942731,-156.46559)">
    <g
       id="g1189">
      <ellipse
         id="ellipse1086"
         ry="1.1756471"
         rx="2.321101"
         cy="157.64124"
         cx="101.26383"
         style="fill:#8993be;fill-opacity:1;stroke-width:0.01887074" />
      <g
         style="fill:#222430;fill-opacity:1"
         id="g1171">
        <path
           id="path1094"
           d="m 100.25991,157.2808 c 0.10567,0 0.1755,0.0189 0.21135,0.0585 0.0359,0.0396 0.0434,0.10568 0.0245,0.20003 -0.0189,0.0981 -0.0566,0.16984 -0.11133,0.21135 -0.0547,0.0415 -0.13776,0.0623 -0.2491,0.0623 h -0.167948 l 0.103788,-0.53215 z m -0.675574,1.07186 h 0.2774 l 0.06605,-0.33779 h 0.237764 c 0.10568,0 0.1906,-0.0113 0.25853,-0.034 0.0679,-0.0226 0.12832,-0.0585 0.18494,-0.11133 0.0472,-0.0434 0.0849,-0.0906 0.11322,-0.14153 0.0283,-0.051 0.0491,-0.10757 0.0604,-0.16984 0.0302,-0.15097 0.008,-0.26796 -0.0661,-0.35288 -0.0736,-0.0849 -0.19059,-0.12644 -0.351,-0.12644 h -0.534034 z"
           inkscape:connector-curvature="0"
           style="fill:#222430;fill-opacity:1;stroke-width:0.01887074" />
        <path
           id="path1096"
           d="m 100.98643,156.7411 h 0.27551 l -0.066,0.33778 h 0.24532 c 0.15474,0 0.26041,0.0264 0.31891,0.0812 0.0585,0.0547 0.0755,0.14153 0.0528,0.2623 l -0.11511,0.59254 h -0.27929 l 0.10945,-0.56423 c 0.0132,-0.0642 0.008,-0.10757 -0.0132,-0.13021 -0.0208,-0.0226 -0.0679,-0.0359 -0.13775,-0.0359 h -0.22079 l -0.14153,0.7303 h -0.27551 z"
           inkscape:connector-curvature="0"
           style="fill:#222430;fill-opacity:1;stroke-width:0.01887074" />
        <path
           id="path1098"
           d="m 102.42438,157.2808 c 0.10568,0 0.1755,0.0189 0.21135,0.0585 0.0359,0.0396 0.0434,0.10568 0.0245,0.20003 -0.0189,0.0981 -0.0566,0.16984 -0.11134,0.21135 -0.0547,0.0415 -0.13776,0.0623 -0.24909,0.0623 h -0.16795 l 0.10378,-0.53215 z m -0.67557,1.07186 h 0.2774 l 0.066,-0.33779 h 0.23777 c 0.10567,0 0.19059,-0.0113 0.25853,-0.034 0.0679,-0.0226 0.12832,-0.0585 0.18493,-0.11133 0.0472,-0.0434 0.0849,-0.0906 0.11323,-0.14153 0.0283,-0.051 0.0491,-0.10757 0.0604,-0.16984 0.0302,-0.15097 0.008,-0.26796 -0.0661,-0.35288 -0.0736,-0.0849 -0.19059,-0.12644 -0.35099,-0.12644 h -0.53404 z"
           inkscape:connector-curvature="0"
           style="fill:#222430;fill-opacity:1;stroke-width:0.01887074" />
      </g>
    </g>
  </g>
</svg>
