<?xml version="1.0" encoding="UTF-8" standalone="no"?>
<!-- Created with Inkscape (http://www.inkscape.org/) -->

<svg
   xmlns:dc="http://purl.org/dc/elements/1.1/"
   xmlns:cc="http://creativecommons.org/ns#"
   xmlns:rdf="http://www.w3.org/1999/02/22-rdf-syntax-ns#"
   xmlns:svg="http://www.w3.org/2000/svg"
   xmlns="http://www.w3.org/2000/svg"
   xmlns:sodipodi="http://sodipodi.sourceforge.net/DTD/sodipodi-0.dtd"
   xmlns:inkscape="http://www.inkscape.org/namespaces/inkscape"
   width="34.299175"
   height="8.6841555"
   viewBox="0 0 9.0749895 2.2976829"
   version="1.1"
   id="svg8"
   sodipodi:docname="logo-bootstrap.svg"
   inkscape:version="0.92.3 (2405546, 2018-03-11)">
  <defs
     id="defs2">
    <radialGradient
       gradientUnits="userSpaceOnUse"
       gradientTransform="matrix(0.00873715,0,0,0.00873715,100.29132,157.91709)"
       r="363.05649"
       cy="-125.811"
       cx="0.83660001"
       id="radialGradient-1">
      <stop
         id="stop1075"
         style="stop-color:#FFFFFF"
         offset="0" />
      <stop
         id="stop1077"
         style="stop-color:#4C6B97"
         offset="0.5" />
      <stop
         id="stop1079"
         style="stop-color:#231F20"
         offset="1" />
    </radialGradient>
  </defs>
  <sodipodi:namedview
     id="base"
     pagecolor="#ffffff"
     bordercolor="#666666"
     borderopacity="1.0"
     inkscape:pageopacity="0.0"
     inkscape:pageshadow="2"
     inkscape:zoom="11.313709"
     inkscape:cx="16.376378"
     inkscape:cy="9.9452702"
     inkscape:document-units="px"
     inkscape:current-layer="layer1"
     showgrid="false"
     borderlayer="true"
     inkscape:showpageshadow="false"
     inkscape:pagecheckerboard="true"
     units="px"
     inkscape:window-width="1024"
     inkscape:window-height="713"
     inkscape:window-x="0"
     inkscape:window-y="27"
     inkscape:window-maximized="1"
     fit-margin-top="0"
     fit-margin-left="0"
     fit-margin-right="0"
     fit-margin-bottom="0"
     showguides="false"
     inkscape:guide-bbox="true">
    <sodipodi:guide
       position="4.5584618,1.477269"
       orientation="0,1"
       id="guide924"
       inkscape:locked="false" />
    <sodipodi:guide
       position="4.5584605,0.65172904"
       orientation="0,1"
       id="guide936"
       inkscape:locked="false" />
    <sodipodi:guide
       position="6.4847706,0.65172884"
       orientation="0.99650508,-0.083532144"
       id="guide938"
       inkscape:locked="false" />
    <sodipodi:guide
       position="4.5582905,-2.2772209"
       orientation="0,1"
       id="guide940"
       inkscape:locked="false" />
    <sodipodi:guide
       position="4.5584605,-0.12660095"
       orientation="0,1"
       id="guide942"
       inkscape:locked="false" />
    <sodipodi:guide
       position="4.5584605,-1.414151"
       orientation="0,1"
       id="guide944"
       inkscape:locked="false" />
    <sodipodi:guide
       position="5.5980906,-0.12660115"
       orientation="0.99701145,-0.077253953"
       id="guide946"
       inkscape:locked="false" />
    <sodipodi:guide
       position="4.5582903,-2.2772208"
       orientation="-0.2456646,0.96935489"
       id="guide950"
       inkscape:locked="false" />
    <sodipodi:guide
       position="2.9071925,-1.788991"
       orientation="0,1"
       id="guide952"
       inkscape:locked="false" />
    <sodipodi:guide
       position="4.5584605,-1.414151"
       orientation="-0.20695736,0.97834996"
       id="guide954"
       inkscape:locked="false" />
    <sodipodi:guide
       position="3.6706406,-1.194231"
       orientation="0,1"
       id="guide956"
       inkscape:locked="false" />
    <sodipodi:guide
       position="4.5607905,3.0676393"
       orientation="1,0"
       id="guide958"
       inkscape:locked="false" />
  </sodipodi:namedview>
  <metadata
     id="metadata5">
    <rdf:RDF>
      <cc:Work
         rdf:about="">
        <dc:format>image/svg+xml</dc:format>
        <dc:type
           rdf:resource="http://purl.org/dc/dcmitype/StillImage" />
        <dc:title></dc:title>
      </cc:Work>
    </rdf:RDF>
  </metadata>
  <g
     inkscape:label="Capa 1"
     inkscape:groupmode="layer"
     id="layer1"
     transform="translate(-96.72634,-156.50409)">
    <g
       id="g1276"
       transform="matrix(0.001004,0,0,-0.001004,96.72634,158.80177)">
      <path
         d="M 2288.54,381.43 C 2288.54,171.641 2116.9,0 1907.11,0 H 381.422 C 171.641,0 0,171.641 0,381.43 v 1525.69 c 0,209.78 171.641,381.42 381.422,381.42 H 1907.11 c 209.79,0 381.43,-171.64 381.43,-381.42 V 381.43"
         style="fill:#4d3d86;fill-opacity:1;fill-rule:nonzero;stroke:none"
         id="path1278"
         inkscape:connector-curvature="0" />
      <path
         d="m 855.586,646.93 h 413.204 c 71.05,0 126.39,18.32 165.29,55.34 39.26,36.652 59.08,89 59.08,156.312 0,66.188 -19.45,116.668 -59.08,152.568 -39.64,35.9 -94.24,53.1 -165.29,53.1 H 855.586 Z m 0,585.22 h 381.424 c 56.09,0 102.83,15.7 140.23,47.86 37.39,32.16 56.09,77.78 56.09,137.62 0,67.3 -16.83,114.8 -50.49,142.09 -33.65,27.3 -82.26,41.14 -145.83,41.14 H 855.586 Z M 621.867,1791.2 h 648.793 c 119.66,0 215.77,-27.3 287.94,-82.27 72.17,-54.97 108.44,-137.61 108.44,-248.68 0,-67.3 -16.45,-124.89 -49.36,-172.76 -32.91,-47.86 -80.02,-85.26 -141.35,-111.43 v -3.74 c 82.27,-17.58 144.72,-56.47 186.97,-116.67 42.26,-60.58 63.57,-136.119 63.57,-227.361 0,-52.348 -9.35,-101.34 -28.04,-146.59 -18.7,-45.617 -47.87,-84.879 -87.88,-117.789 -40.01,-32.91 -90.87,-59.078 -153.32,-78.531 -62.45,-19.438 -136.49,-29.168 -222.49,-29.168 H 621.867 v 1334.989 0"
         style="fill:#ffffff;fill-opacity:1;fill-rule:nonzero;stroke:none"
         id="path1280"
         inkscape:connector-curvature="0" />
      <path
         d="m 2930.49,765.898 h 267.33 c 45.89,0 78.12,1.711 96.68,5.133 32.71,5.86 60.06,15.617 82.04,29.289 21.97,13.668 40.02,33.571 54.19,59.692 14.16,26.129 21.24,56.277 21.24,90.457 0,40.031 -10.25,74.831 -30.76,104.381 -20.51,29.53 -48.95,50.28 -85.33,62.25 -36.38,11.95 -88.74,17.94 -157.1,17.94 h -248.29 z m 0,495.852 h 232.18 c 62.99,0 108.14,4.14 135.5,12.45 36.13,10.73 63.36,28.57 81.66,53.47 18.32,24.9 27.47,56.14 27.47,93.75 0,35.63 -8.55,67.02 -25.64,94.12 -17.1,27.1 -41.5,45.64 -73.24,55.66 -31.75,10 -86.19,15.01 -163.33,15.01 h -214.6 z M 2788.4,639.191 V 1712.92 h 402.83 c 82.03,0 147.82,-10.87 197.39,-32.58 49.56,-21.74 88.37,-55.19 116.46,-100.35 28.07,-45.17 42.11,-92.41 42.11,-141.72 0,-45.91 -12.45,-89.12 -37.35,-129.64 -24.91,-40.54 -62.51,-73.25 -112.8,-98.15 64.93,-19.04 114.87,-51.52 149.78,-97.41 34.91,-45.9 52.37,-100.1 52.37,-162.601 0,-50.289 -10.61,-97.039 -31.86,-140.258 -21.23,-43.211 -47.49,-76.539 -78.73,-99.973 -31.25,-23.437 -70.44,-41.148 -117.56,-53.097 -47.12,-11.969 -104.86,-17.95 -173.22,-17.95 H 2788.4"
         style="fill:#4d3d86;fill-opacity:1;fill-rule:nonzero;stroke:none"
         id="path1282"
         inkscape:connector-curvature="0" />
      <path
         d="m 3864.33,1028.11 c 0,-99.61 21.72,-174.2 65.18,-223.758 43.46,-49.563 98.15,-74.34 164.07,-74.34 65.43,0 119.86,24.898 163.33,74.707 43.45,49.801 65.18,125.722 65.18,227.781 0,96.19 -21.85,169.06 -65.55,218.63 -43.71,49.56 -98.03,74.34 -162.96,74.34 -65.92,0 -120.61,-24.66 -164.07,-73.97 -43.46,-49.33 -65.18,-123.78 -65.18,-223.39 z m -135.5,0 c 0,144.03 40.03,250.73 120.12,320.07 66.89,57.6 148.42,86.42 244.63,86.42 106.93,0 194.33,-35.04 262.2,-105.1 67.86,-70.07 101.81,-166.88 101.81,-290.41 0,-100.09 -15.01,-178.828 -45.05,-236.211 -30.02,-57.367 -73.73,-101.918 -131.09,-133.66 -57.39,-31.739 -120.01,-47.61 -187.87,-47.61 -108.89,0 -196.91,34.911 -264.05,104.743 -67.14,69.82 -100.7,170.398 -100.7,301.758"
         style="fill:#4d3d86;fill-opacity:1;fill-rule:nonzero;stroke:none"
         id="path1284"
         inkscape:connector-curvature="0" />
      <path
         d="m 4698.56,1028.11 c 0,-99.61 21.72,-174.2 65.18,-223.758 43.46,-49.563 98.15,-74.34 164.06,-74.34 65.43,0 119.86,24.898 163.33,74.707 43.46,49.801 65.19,125.722 65.19,227.781 0,96.19 -21.86,169.06 -65.55,218.63 -43.71,49.56 -98.04,74.34 -162.97,74.34 -65.91,0 -120.6,-24.66 -164.06,-73.97 -43.46,-49.33 -65.18,-123.78 -65.18,-223.39 z m -135.5,0 c 0,144.03 40.03,250.73 120.12,320.07 66.89,57.6 148.42,86.42 244.62,86.42 106.93,0 194.34,-35.04 262.21,-105.1 67.86,-70.07 101.8,-166.88 101.8,-290.41 0,-100.09 -15.01,-178.828 -45.05,-236.211 -30.02,-57.367 -73.73,-101.918 -131.09,-133.66 -57.38,-31.739 -120.01,-47.61 -187.87,-47.61 -108.88,0 -196.9,34.911 -264.04,104.743 -67.14,69.82 -100.7,170.398 -100.7,301.758"
         style="fill:#4d3d86;fill-opacity:1;fill-rule:nonzero;stroke:none"
         id="path1286"
         inkscape:connector-curvature="0" />
      <path
         d="m 5734.2,757.109 19.04,-116.449 c -37.11,-7.808 -70.31,-11.719 -99.61,-11.719 -47.86,0 -84.96,7.579 -111.33,22.7 -26.37,15.129 -44.93,35.031 -55.66,59.699 -10.74,24.648 -16.12,76.531 -16.12,155.629 v 447.511 h -96.68 v 102.54 h 96.68 v 192.63 l 131.11,79.1 V 1417.02 H 5734.2 V 1314.48 H 5601.63 V 859.648 c 0,-37.609 2.31,-61.777 6.96,-72.507 4.63,-10.743 12.2,-19.301 22.7,-25.629 10.49,-6.352 25.51,-9.532 45.04,-9.532 14.65,0 33.94,1.711 57.87,5.129"
         style="fill:#4d3d86;fill-opacity:1;fill-rule:nonzero;stroke:none"
         id="path1288"
         inkscape:connector-curvature="0" />
      <path
         d="m 5810.37,871.371 130.37,20.508 c 7.32,-52.258 27.7,-92.289 61.16,-120.117 33.44,-27.832 80.2,-41.75 140.26,-41.75 60.53,0 105.46,12.328 134.76,36.988 29.3,24.648 43.95,53.578 43.95,86.789 0,29.781 -12.94,53.211 -38.82,70.313 -18.07,11.718 -62.99,26.617 -134.77,44.679 -96.68,24.418 -163.7,45.529 -201.04,63.359 -37.37,17.81 -65.69,42.48 -84.96,73.98 -19.3,31.49 -28.94,66.27 -28.94,104.36 0,34.67 7.93,66.77 23.8,96.32 15.87,29.53 37.47,54.07 64.82,73.6 20.51,15.13 48.46,27.95 83.87,38.46 35.39,10.49 73.35,15.74 113.89,15.74 61.03,0 114.63,-8.79 160.76,-26.37 46.15,-17.57 80.2,-41.37 102.18,-71.4 21.97,-30.03 37.1,-70.21 45.41,-120.49 l -128.91,-17.58 c -5.86,40.03 -22.83,71.29 -50.91,93.75 -28.07,22.45 -67.74,33.69 -119.01,33.69 -60.55,0 -103.76,-10 -129.64,-30.02 -25.89,-20.04 -38.82,-43.47 -38.82,-70.32 0,-17.1 5.37,-32.48 16.12,-46.14 10.73,-14.17 27.57,-25.89 50.53,-35.16 13.19,-4.88 52,-16.11 116.46,-33.69 93.26,-24.9 158.32,-45.29 195.18,-61.15 36.87,-15.88 65.8,-38.95 86.8,-69.22 20.99,-30.281 31.49,-67.871 31.49,-112.789 0,-43.949 -12.82,-85.332 -38.44,-124.141 -25.65,-38.832 -62.63,-68.851 -110.97,-90.101 -48.34,-21.231 -103.03,-31.86 -164.06,-31.86 -101.08,0 -178.11,20.993 -231.09,62.993 -52.97,41.988 -86.78,104.25 -101.43,186.769"
         style="fill:#4d3d86;fill-opacity:1;fill-rule:nonzero;stroke:none"
         id="path1290"
         inkscape:connector-curvature="0" />
      <path
         d="m 6900.94,757.109 19.05,-116.449 c -37.11,-7.808 -70.32,-11.719 -99.61,-11.719 -47.86,0 -84.96,7.579 -111.33,22.7 -26.37,15.129 -44.93,35.031 -55.66,59.699 -10.75,24.648 -16.12,76.531 -16.12,155.629 v 447.511 h -96.68 v 102.54 h 96.68 v 192.63 l 131.11,79.1 v -271.73 h 132.56 V 1314.48 H 6768.38 V 859.648 c 0,-37.609 2.31,-61.777 6.96,-72.507 4.63,-10.743 12.2,-19.301 22.69,-25.629 10.5,-6.352 25.52,-9.532 45.05,-9.532 14.65,0 33.94,1.711 57.86,5.129"
         style="fill:#4d3d86;fill-opacity:1;fill-rule:nonzero;stroke:none"
         id="path1292"
         inkscape:connector-curvature="0" />
      <path
         d="m 7028.39,639.191 v 777.829 h 118.65 v -117.91 c 30.27,55.17 58.23,91.55 83.86,109.12 25.64,17.58 53.83,26.37 84.59,26.37 44.43,0 89.6,-14.17 135.5,-42.48 l -45.41,-122.31 c -32.22,19.04 -64.45,28.56 -96.68,28.56 -28.82,0 -54.68,-8.67 -77.63,-25.99 -22.96,-17.35 -39.31,-41.39 -49.08,-72.15 -14.64,-46.88 -21.97,-98.15 -21.97,-153.81 V 639.191 h -131.83"
         style="fill:#4d3d86;fill-opacity:1;fill-rule:nonzero;stroke:none"
         id="path1294"
         inkscape:connector-curvature="0" />
      <path
         d="m 8025.94,1029.57 c -47.86,-19.53 -119.63,-36.14 -215.33,-49.8 -54.2,-7.809 -92.54,-16.598 -114.99,-26.372 -22.46,-9.769 -39.8,-24.046 -52,-42.839 -12.21,-18.809 -18.31,-39.68 -18.31,-62.629 0,-35.149 13.3,-64.45 39.92,-87.891 26.6,-23.437 65.55,-35.148 116.82,-35.148 50.78,0 95.94,11.097 135.5,33.328 39.55,22.203 68.59,52.601 87.15,91.179 14.16,29.774 21.24,73.723 21.24,131.832 z m 10.99,-294.429 c -48.83,-41.5 -95.83,-70.801 -141,-87.891 -45.16,-17.09 -93.63,-25.641 -145.38,-25.641 -85.45,0 -151.13,20.879 -197.02,62.621 -45.9,41.758 -68.85,95.098 -68.85,160.04 0,38.089 8.67,72.878 26,104.371 17.33,31.5 40.04,56.759 68.13,75.809 28.06,19.04 59.68,33.43 94.84,43.21 25.88,6.83 64.93,13.43 117.19,19.77 106.44,12.7 184.81,27.84 235.1,45.41 0.48,18.06 0.74,29.54 0.74,34.43 0,53.71 -12.45,91.55 -37.36,113.52 -33.69,29.78 -83.75,44.68 -150.14,44.68 -62.02,0 -107.8,-10.87 -137.33,-32.59 -29.55,-21.74 -51.39,-60.18 -65.55,-115.36 l -128.91,17.58 c 11.72,55.18 31.01,99.72 57.86,133.67 26.85,33.93 65.66,60.06 116.46,78.37 50.78,18.31 109.61,27.46 176.51,27.46 66.4,0 120.36,-7.81 161.86,-23.44 41.5,-15.63 72.03,-35.28 91.56,-58.95 19.52,-23.69 33.2,-53.6 41.01,-89.73 4.4,-22.46 6.59,-62.99 6.59,-121.58 V 965.121 c 0,-122.57 2.81,-200.082 8.43,-232.551 5.61,-32.468 16.72,-63.601 33.32,-93.379 H 8063.3 c -13.67,27.348 -22.46,59.329 -26.37,95.95"
         style="fill:#4d3d86;fill-opacity:1;fill-rule:nonzero;stroke:none"
         id="path1296"
         inkscape:connector-curvature="0" />
      <path
         d="m 8482.98,1023.71 c 0,-100.089 20.25,-174.069 60.79,-221.921 40.52,-47.859 89.6,-71.777 147.21,-71.777 58.6,0 108.77,24.777 150.51,74.34 41.76,49.558 62.63,126.347 62.63,230.348 0,99.12 -20.39,173.33 -61.16,222.66 -40.78,49.31 -89.48,73.97 -146.12,73.97 -56.15,0 -105.84,-26.25 -149.04,-78.73 -43.22,-52.5 -64.82,-128.8 -64.82,-228.89 z M 8363.59,341.102 V 1417.02 h 120.12 v -101.07 c 28.31,39.55 60.3,69.22 95.95,89 35.63,19.77 78.84,29.65 129.63,29.65 66.4,0 124.99,-17.1 175.79,-51.27 50.78,-34.18 89.1,-82.39 114.99,-144.65 25.87,-62.25 38.81,-130.49 38.81,-204.71 0,-79.591 -14.28,-151.24 -42.84,-214.97 -28.57,-63.711 -70.08,-112.551 -124.51,-146.488 -54.45,-33.922 -111.7,-50.903 -171.76,-50.903 -43.94,0 -83.38,9.282 -118.28,27.84 -34.92,18.551 -63.61,41.992 -86.06,70.313 v -378.66 h -131.84"
         style="fill:#4d3d86;fill-opacity:1;fill-rule:nonzero;stroke:none"
         id="path1298"
         inkscape:connector-curvature="0" />
    </g>
  </g>
</svg>
