<?xml version="1.0" encoding="UTF-8" standalone="no"?>
<svg
   xmlns:dc="http://purl.org/dc/elements/1.1/"
   xmlns:cc="http://creativecommons.org/ns#"
   xmlns:rdf="http://www.w3.org/1999/02/22-rdf-syntax-ns#"
   xmlns:svg="http://www.w3.org/2000/svg"
   xmlns="http://www.w3.org/2000/svg"
   id="svg8"
   version="1.1"
   viewBox="0 0 9.3753982 2.5512202"
   height="9.6424065"
   width="35.434578">
  <defs
     id="defs2" />
  <metadata
     id="metadata5">
    <rdf:RDF>
      <cc:Work
         rdf:about="">
        <dc:format>image/svg+xml</dc:format>
        <dc:type
           rdf:resource="http://purl.org/dc/dcmitype/StillImage" />
        <dc:title></dc:title>
      </cc:Work>
    </rdf:RDF>
  </metadata>
  <g
     transform="translate(-96.576132,-156.36562)"
     id="layer1">
    <path
       style="fill:#00cbdc;stroke-width:0.0183114"
       d="m 97.892363,157.4672 c -0.108041,-0.0932 -0.268811,-0.17167 -0.482376,-0.23548 -0.138623,-0.05 -0.233221,-0.0917 -0.283516,-0.12489 -0.05041,-0.0331 -0.07557,-0.0775 -0.07557,-0.1327 0,-0.0571 0.025,-0.10491 0.07492,-0.14375 0.04992,-0.0388 0.118811,-0.0582 0.206737,-0.0582 0.08954,0 0.15968,0.0236 0.210508,0.0705 0.05074,0.0471 0.07623,0.1165 0.07623,0.19155 h 0.423687 l 0.0025,-0.008 c 0.0041,-0.16905 -0.06008,-0.3158 -0.193032,-0.42313 -0.13309,-0.10752 -0.30386,-0.16963 -0.512212,-0.16963 -0.210123,0 -0.383434,0.0572 -0.519909,0.15479 -0.136664,0.0975 -0.20491,0.2251 -0.20491,0.38307 0,0.16217 0.05729,0.28632 0.171869,0.37209 0.114467,0.0859 0.290663,0.1664 0.528286,0.24145 0.113696,0.0406 0.192508,0.0789 0.236458,0.11518 0.04385,0.0362 0.06582,0.0875 0.06582,0.154 0,0.0587 -0.02229,0.10612 -0.06647,0.14228 -0.04443,0.0362 -0.111738,0.0545 -0.202106,0.0545 -0.118804,0 -0.207557,-0.0234 -0.266041,-0.07 -0.05861,-0.0467 -0.08788,-0.097 -0.08788,-0.20573 h -0.416548 l -0.0025,0.007 c -0.0041,0.20202 0.06311,0.32931 0.218999,0.4367 0.155926,0.10753 0.34059,0.16127 0.554106,0.16127 0.212598,0 0.383384,-0.0469 0.512146,-0.14054 0.12873,-0.0937 0.193098,-0.22327 0.193098,-0.38893 -4.9e-5,-0.16288 -0.05402,-0.29106 -0.162163,-0.38417 z m 2.905027,-0.96652 h -0.4001 v 1.8796 h 1.27081 v -0.33576 h -0.87071 z m -2.319872,0.33684 h 1.349391 c 0.09139,0 0.131819,-0.0489 0.131819,-0.14054 v -0.0167 c 0,-0.16651 -0.156688,-0.23176 -0.247934,-0.23176 0,0 -0.243032,-0.0829 -0.552966,-0.0829 -0.31,0 -0.564122,0.0829 -0.564122,0.0829 -0.09024,0 -0.243672,0.0804 -0.247295,0.24298 0.0033,0.0854 0.04369,0.14603 0.131107,0.14603 z m -0.13182,-0.15725 v 0.0168 c 0,-0.002 5.82e-4,-0.003 6.4e-4,-0.006 -1.64e-4,-0.004 -6.4e-4,-0.007 -6.4e-4,-0.0112 z m 0.101074,0.96153 H 99.8584 c 0.09126,0 0.133861,-0.0742 0.133861,-0.16567 v -0.2056 c 0,-0.0915 -0.04254,-0.16561 -0.133861,-0.16561 h -1.411628 c -0.09132,0 -0.131803,0.0741 -0.131803,0.16561 v 0.2056 c -4.9e-5,0.0915 0.04049,0.16568 0.131803,0.16568 z m 1.513866,0.49519 c 0.0057,-0.0207 0.0093,-0.043 0.0093,-0.0685 v -0.0211 c 0,-0.0914 -0.07402,-0.1362 -0.165303,-0.1362 h -1.293588 c -0.08789,0 -0.158983,0.0611 -0.164344,0.14711 0.0057,0.15644 0.124295,0.23774 0.213434,0.23774 0,0 0.287672,0.0826 0.597688,0.0826 0.211639,0 0.410171,-0.0384 0.514876,-0.0629 8.2e-4,8.2e-4 0.0016,0.002 0.0025,0.003 l 0.302344,0.30297 a 0.08278587,0.08278587 0 0 0 0.116905,0 l 0.11695,-0.11714 c 0.0323,-0.0324 0.0323,-0.085 0,-0.11716 z m -1.61494,-0.0685 c 0,-0.003 7.71e-4,-0.007 8.2e-4,-0.0101 -1.07e-4,-0.004 -8.2e-4,-0.007 -8.2e-4,-0.011 z m 4.730862,-0.82489 c -0.0468,-0.0844 -0.11383,-0.15095 -0.19258,-0.19954 -0.0787,-0.0487 -0.17213,-0.0729 -0.28022,-0.0729 -0.16343,0 -0.29112,0.0645 -0.383,0.19379 -0.092,0.12915 -0.13794,0.3033 -0.13794,0.52243 v 0.0267 c 0,0.21318 0.0457,0.38197 0.13724,0.50647 0.0914,0.12449 0.21848,0.18678 0.38103,0.18678 0.10727,0 0.20113,-0.0217 0.28163,-0.0651 0.0803,-0.0436 0.14768,-0.10242 0.19378,-0.17663 l 0.002,0.21483 h 0.0623 v -1.94885 h -0.0648 v 0.812 h 4e-5 z m 0,0.79414 c -0.0358,0.0913 -0.0976,0.16414 -0.17722,0.21873 -0.0796,0.0546 -0.17938,0.0818 -0.29939,0.0818 -0.14644,0 -0.2572,-0.0562 -0.33257,-0.16879 -0.0753,-0.11248 -0.11295,-0.26432 -0.11295,-0.45533 v -0.0267 c 0,-0.19188 0.0381,-0.34773 0.11408,-0.46748 0.0762,-0.11985 0.18757,-0.17973 0.33391,-0.17973 0.13203,0 0.23494,0.0334 0.30897,0.10043 0.074,0.067 0.13183,0.14981 0.16511,0.24878 v 0.6483 h 4e-5 z m 0.96849,-1.06657 c -0.16255,0 -0.29914,0.0651 -0.40972,0.19502 -0.11066,0.13009 -0.16599,0.29443 -0.16599,0.49307 v 0.0818 c 0,0.18927 0.0571,0.34774 0.1716,0.47515 0.11459,0.12742 0.2505,0.19119 0.40788,0.19119 0.10555,0 0.1973,-0.0157 0.27512,-0.0466 0.078,-0.0311 0.1441,-0.077 0.1985,-0.13749 l -0.0371,-0.0539 a 0.46523792,0.46523792 0 0 1 -0.17798,0.12672 c -0.0694,0.028 -0.15554,0.0421 -0.25847,0.0421 -0.14462,0 -0.26605,-0.0576 -0.36394,-0.17326 -0.0978,-0.11562 -0.14667,-0.25687 -0.14667,-0.42395 v -0.0985 h 1.03532 v -0.10612 c 0,-0.17224 -0.0492,-0.30946 -0.1475,-0.41182 -0.0981,-0.10223 -0.22517,-0.15346 -0.38104,-0.15346 z m 0.45973,0.60238 h -0.95249 l -0.004,-0.007 c 0.0119,-0.15012 0.0634,-0.27516 0.15452,-0.37534 0.0911,-0.10032 0.20501,-0.15025 0.34213,-0.15025 0.13609,0 0.24685,0.0467 0.33193,0.13997 0.0851,0.0934 0.12766,0.21051 0.12766,0.35119 v 0.042 z m 1.30782,-0.40859 c -0.0922,-0.12918 -0.21956,-0.19379 -0.38224,-0.19379 -0.10898,0 -0.20298,0.0243 -0.28212,0.0729 -0.0792,0.0486 -0.15012,0.11554 -0.19612,0.20074 l 7.4e-4,-0.27324 h -0.064 v 1.94527 h 0.0647 v -0.75117 c 0.0452,0.0743 0.11627,0.13304 0.19681,0.17666 0.0803,0.0434 0.17462,0.0652 0.28289,0.0652 0.16152,0 0.28844,-0.0624 0.3804,-0.18679 0.092,-0.12443 0.13787,-0.2933 0.13787,-0.50643 v -0.0268 c -2.6e-4,-0.21924 -0.0464,-0.3934 -0.13884,-0.52248 z m 0.0684,0.5492 c 0,0.19098 -0.0381,0.34284 -0.11434,0.45533 -0.0761,0.11261 -0.18697,0.16879 -0.3325,0.16879 -0.12091,0 -0.22134,-0.0273 -0.30132,-0.0818 -0.08,-0.0545 -0.1454,-0.12793 -0.17945,-0.22002 v -0.64701 c 0.0315,-0.0982 0.0927,-0.18079 0.16663,-0.24812 0.0739,-0.0675 0.17786,-0.10102 0.31147,-0.10102 0.14553,0 0.2568,0.0598 0.33382,0.17958 0.077,0.11983 0.11564,0.27562 0.11564,0.46749 z"
       id="path1045" />
  </g>
</svg>
