<?xml version="1.0" encoding="UTF-8" standalone="no"?>
<!-- Created with Inkscape (http://www.inkscape.org/) -->

<svg
   xmlns:dc="http://purl.org/dc/elements/1.1/"
   xmlns:cc="http://creativecommons.org/ns#"
   xmlns:rdf="http://www.w3.org/1999/02/22-rdf-syntax-ns#"
   xmlns:svg="http://www.w3.org/2000/svg"
   xmlns="http://www.w3.org/2000/svg"
   xmlns:sodipodi="http://sodipodi.sourceforge.net/DTD/sodipodi-0.dtd"
   xmlns:inkscape="http://www.inkscape.org/namespaces/inkscape"
   width="30"
   height="30"
   viewBox="0 0 7.9374998 7.9375002"
   version="1.1"
   id="svg8"
   inkscape:version="0.92.3 (2405546, 2018-03-11)"
   sodipodi:docname="fa-clock.svg">
  <defs
     id="defs2" />
  <sodipodi:namedview
     id="base"
     pagecolor="#ffffff"
     bordercolor="#666666"
     borderopacity="1.0"
     inkscape:pageopacity="0.0"
     inkscape:pageshadow="2"
     inkscape:zoom="15.839192"
     inkscape:cx="26.139512"
     inkscape:cy="13.158344"
     inkscape:document-units="px"
     inkscape:current-layer="layer1"
     showgrid="false"
     borderlayer="true"
     inkscape:showpageshadow="false"
     units="px"
     inkscape:pagecheckerboard="true"
     inkscape:window-width="1024"
     inkscape:window-height="713"
     inkscape:window-x="0"
     inkscape:window-y="27"
     inkscape:window-maximized="1" />
  <metadata
     id="metadata5">
    <rdf:RDF>
      <cc:Work
         rdf:about="">
        <dc:format>image/svg+xml</dc:format>
        <dc:type
           rdf:resource="http://purl.org/dc/dcmitype/StillImage" />
        <dc:title></dc:title>
      </cc:Work>
    </rdf:RDF>
  </metadata>
  <g
     inkscape:label="Capa 1"
     inkscape:groupmode="layer"
     id="layer1"
     transform="translate(0,-289.06249)">
    <path
       id="path815"
       d="m 3.9687494,289.11023 c -2.166043,0 -3.9210129,1.75497 -3.9210129,3.92102 0,2.16604 1.7549699,3.92101 3.9210129,3.92101 2.1660442,0 3.9210141,-1.75497 3.9210141,-3.92101 0,-2.16605 -1.7549699,-3.92102 -3.9210141,-3.92102 z m 1.4623169,4.94871 v 0 l -0.3162104,0.39526 a 0.25296862,0.25296862 0 0 1 -0.3555793,0.0395 v 0 l -1.0593055,-0.78611 a 0.63242152,0.63242152 0 0 1 -0.2371582,-0.49376 v -2.45934 a 0.25296862,0.25296862 0 0 1 0.2529684,-0.25295 h 0.5059374 a 0.25296862,0.25296862 0 0 1 0.2529684,0.25295 v 2.27672 l 0.9170112,0.67195 a 0.25296862,0.25296862 0 0 1 0.039365,0.35574 z"
       inkscape:connector-curvature="0"
       style="fill:#fafafa;stroke-width:0.01581054;fill-opacity:0.98039216" />
  </g>
</svg>
