<svg width="55" height="55" viewBox="0 0 55 55" fill="none" xmlns="http://www.w3.org/2000/svg">
<rect width="55" height="55" rx="9" fill="#F9DCAD"/>
<path d="M17.4537 44C17.4537 37.4503 22.9785 33.9708 27.3539 33.9708C31.7294 33.9708 37.4231 37.4503 37.4231 44H43.9782C43.9782 31.7193 32.6742 27.3187 27.3539 27.3187C22.0337 27.3187 11 31.7193 11 44H17.4537Z" fill="#183153"/>
<path d="M15.3521 29.8432C15.3521 29.8432 18.6389 27.7953 20.3896 26.984C21.5602 26.4415 24.0213 25.6518 24.0213 25.6518L26.1572 19.5751C26.1572 19.5751 26.4562 18.7685 27.6279 18.7685C28.7995 18.7685 29.0876 19.5751 29.0876 19.5751L31.2572 25.6518C31.2572 25.6518 33.5717 26.4585 34.6773 26.984C36.4218 27.8129 39.7207 29.8432 39.7207 29.8432L34.6284 15.618C34.6284 15.618 33.0444 11 27.6279 11C22.2114 11 20.6073 15.618 20.6073 15.618L15.3521 29.8432Z" fill="#183153"/>
</svg>
