<?xml version="1.0" encoding="UTF-8" standalone="no"?>
<svg
   xmlns:dc="http://purl.org/dc/elements/1.1/"
   xmlns:cc="http://creativecommons.org/ns#"
   xmlns:rdf="http://www.w3.org/1999/02/22-rdf-syntax-ns#"
   xmlns:svg="http://www.w3.org/2000/svg"
   xmlns="http://www.w3.org/2000/svg"
   xmlns:sodipodi="http://sodipodi.sourceforge.net/DTD/sodipodi-0.dtd"
   xmlns:inkscape="http://www.inkscape.org/namespaces/inkscape"
   width="250"
   height="73.514"
   viewBox="0 0 66.145829 19.45058"
   version="1.1"
   id="svg880"
   sodipodi:docname="logotype-vector.svg"
   inkscape:version="0.92.3 (2405546, 2018-03-11)">
  <sodipodi:namedview
     pagecolor="#ffffff"
     bordercolor="#183153"
     borderopacity="1"
     objecttolerance="10"
     gridtolerance="10"
     guidetolerance="10"
     inkscape:pageopacity="0"
     inkscape:pageshadow="2"
     inkscape:window-width="1024"
     inkscape:window-height="713"
     id="namedview831"
     showgrid="false"
     borderlayer="true"
     inkscape:showpageshadow="false"
     inkscape:pagecheckerboard="true"
     inkscape:zoom="1.2020815"
     inkscape:cx="179.72633"
     inkscape:cy="-14.414249"
     inkscape:window-x="0"
     inkscape:window-y="27"
     inkscape:window-maximized="1"
     inkscape:current-layer="svg880" />
  <defs
     id="defs874" />
  <metadata
     id="metadata877">
    <rdf:RDF>
      <cc:Work
         rdf:about="">
        <dc:format>image/svg+xml</dc:format>
        <dc:type
           rdf:resource="http://purl.org/dc/dcmitype/StillImage" />
        <dc:title />
      </cc:Work>
    </rdf:RDF>
  </metadata>
  <g
     id="g848"
     inkscape:export-filename="/home/abraham/Escritorio/INFOGRAFIAS ABRAHAM CALSIN/LOGO ABRAHAM CALSIN/LOGO ACTUALIZADO.png"
     inkscape:export-xdpi="95"
     inkscape:export-ydpi="95">
    <path
       style="opacity:1;fill:#183153;fill-opacity:1;stroke:none;stroke-width:0.00910735px;stroke-linecap:butt;stroke-linejoin:miter;stroke-opacity:1"
       d="m 3.8440037,19.508258 c 0,-3.863919 3.2905305,-5.916629 5.8965098,-5.916629 2.6059865,0 5.9971345,2.05271 5.9971345,5.916629 h 3.904189 c 0,-7.244858 -6.732616,-9.84093 -9.9013235,-9.84093 -3.1687093,0 -9.7403134489,2.596072 -9.7403134489,9.84093 z"
       id="path1063-3"
       inkscape:connector-curvature="0" />
    <path
       style="opacity:1;fill:#183153;fill-opacity:1;stroke:none;stroke-width:0.00910735px;stroke-linecap:butt;stroke-linejoin:miter;stroke-opacity:1"
       d="m 2.5923211,11.156555 c 0,0 1.9576348,-1.2081284 3.0003574,-1.6867528 C 6.2898608,9.1497844 7.7556761,8.6838907 7.7556761,8.6838907 L 9.0278189,5.0990474 c 0,0 0.1780837,-0.4758719 0.8759195,-0.4758719 0.6978306,0 0.8693666,0.4758719 0.8693666,0.4758719 l 1.292213,3.5848433 c 0,0 1.378543,0.475946 2.037038,0.7859115 1.038973,0.4890407 3.003769,1.6867528 3.003769,1.6867528 l -3.03293,-8.3919534 c 0,0 -0.943418,-2.7243658 -4.1694566,-2.7243658 -3.2260424,0 -4.1814126,2.7243658 -4.1814126,2.7243658 z"
       id="path1065-6"
       inkscape:connector-curvature="0" />
    <g
       aria-label="ABRAHAM"
       style="font-style:normal;font-variant:normal;font-weight:normal;font-stretch:normal;font-size:10.27152443px;line-height:1.20000005;font-family:Alatsi;-inkscape-font-specification:'Alatsi, Normal';font-variant-ligatures:normal;font-variant-caps:normal;font-variant-numeric:normal;font-feature-settings:normal;text-align:start;letter-spacing:0px;word-spacing:0px;writing-mode:lr-tb;text-anchor:start;fill:#183153;fill-opacity:1;stroke:#183153;stroke-width:0.39670488;stroke-miterlimit:4;stroke-dasharray:none;stroke-opacity:1"
       id="text1812">
      <path
         d="m 24.591286,6.4444681 h -2.55761 l -0.380046,1.037424 h -1.438014 l 3.0301,-7.28251081 h 0.102715 L 26.388802,7.4818921 H 24.991875 Z M 24.211239,5.4481303 23.461418,3.4965406 23.286802,2.9213353 23.122458,3.4965406 22.403451,5.4481303 Z"
         style="font-style:normal;font-variant:normal;font-weight:normal;font-stretch:normal;font-size:10.27152443px;font-family:Alatsi;-inkscape-font-specification:'Alatsi, Normal';font-variant-ligatures:normal;font-variant-caps:normal;font-variant-numeric:normal;font-feature-settings:normal;text-align:start;letter-spacing:0.4592675px;writing-mode:lr-tb;text-anchor:start;fill:#183153;fill-opacity:1;stroke:#183153;stroke-width:0.39670488;stroke-miterlimit:4;stroke-dasharray:none;stroke-opacity:1"
         id="path879"
         inkscape:connector-curvature="0" />
      <path
         d="m 31.017346,3.6916996 q 0.600884,0.1438013 0.898759,0.5906126 0.297874,0.4416756 0.297874,1.1350035 0,0.9860663 -0.672785,1.5253214 -0.667649,0.539255 -2.069712,0.539255 H 27.530164 V 0.32263958 h 1.910503 q 2.413808,0 2.413808,1.91050352 0,0.4468113 -0.210566,0.8525366 -0.210566,0.4057252 -0.626563,0.6060199 z m -0.43654,-1.4174704 q 0,-0.5135762 -0.318417,-0.7241424 -0.318417,-0.2105663 -0.821722,-0.2105663 h -0.616291 v 1.9824042 h 0.831993 q 0.328689,0 0.534119,-0.1592086 0.205431,-0.1592086 0.297875,-0.3954537 0.09244,-0.2413808 0.09244,-0.4930332 z m -0.965523,4.1702389 q 0.554662,0 0.898758,-0.2311093 0.344097,-0.236245 0.344097,-0.8679438 0,-0.6316987 -0.359504,-0.8474007 -0.354367,-0.2208378 -0.94498,-0.2208378 h -0.729278 v 2.1672916 z"
         style="font-style:normal;font-variant:normal;font-weight:normal;font-stretch:normal;font-size:10.27152443px;font-family:Alatsi;-inkscape-font-specification:'Alatsi, Normal';font-variant-ligatures:normal;font-variant-caps:normal;font-variant-numeric:normal;font-feature-settings:normal;text-align:start;letter-spacing:0.4592675px;writing-mode:lr-tb;text-anchor:start;fill:#183153;fill-opacity:1;stroke:#183153;stroke-width:0.39670488;stroke-miterlimit:4;stroke-dasharray:none;stroke-opacity:1"
         id="path881"
         inkscape:connector-curvature="0" />
      <path
         d="M 36.970435,7.4818921 35.131832,4.893468 V 7.4818921 H 33.827349 V 0.32263958 h 1.992675 q 2.547338,0 2.547338,2.28027842 0,0.5084405 -0.164344,1.0014736 -0.164344,0.4878974 -0.539255,0.8679439 -0.369775,0.3800464 -0.950116,0.5238477 l 1.848874,2.4857089 z M 35.676223,4.2463619 q 0.43654,0 0.744685,-0.2054305 0.313282,-0.2105662 0.472491,-0.5546623 0.159208,-0.3492318 0.159208,-0.7600928 0,-0.7087352 -0.328689,-1.0425597 Q 36.400365,1.349792 35.645408,1.349792 h -0.513576 v 2.8965699 z"
         style="font-style:normal;font-variant:normal;font-weight:normal;font-stretch:normal;font-size:10.27152443px;font-family:Alatsi;-inkscape-font-specification:'Alatsi, Normal';font-variant-ligatures:normal;font-variant-caps:normal;font-variant-numeric:normal;font-feature-settings:normal;text-align:start;letter-spacing:0.4592675px;writing-mode:lr-tb;text-anchor:start;fill:#183153;fill-opacity:1;stroke:#183153;stroke-width:0.39670488;stroke-miterlimit:4;stroke-dasharray:none;stroke-opacity:1"
         id="path883"
         inkscape:connector-curvature="0" />
      <path
         d="m 43.543024,6.4444681 h -2.55761 l -0.380046,1.037424 h -1.438013 l 3.030099,-7.28251081 h 0.102715 L 45.340541,7.4818921 H 43.943613 Z M 43.162978,5.4481303 42.413156,3.4965406 42.23854,2.9213353 42.074196,3.4965406 41.355189,5.4481303 Z"
         style="font-style:normal;font-variant:normal;font-weight:normal;font-stretch:normal;font-size:10.27152443px;font-family:Alatsi;-inkscape-font-specification:'Alatsi, Normal';font-variant-ligatures:normal;font-variant-caps:normal;font-variant-numeric:normal;font-feature-settings:normal;text-align:start;letter-spacing:0.4592675px;writing-mode:lr-tb;text-anchor:start;fill:#183153;fill-opacity:1;stroke:#183153;stroke-width:0.39670488;stroke-miterlimit:4;stroke-dasharray:none;stroke-opacity:1"
         id="path885"
         inkscape:connector-curvature="0" />
      <path
         d="M 51.504678,0.32263958 V 7.4818921 H 50.16938 V 4.4415209 H 47.80693 V 7.4818921 H 46.481903 V 0.32263958 H 47.80693 V 3.3116532 h 2.36245 V 0.32263958 Z"
         style="font-style:normal;font-variant:normal;font-weight:normal;font-stretch:normal;font-size:10.27152443px;font-family:Alatsi;-inkscape-font-specification:'Alatsi, Normal';font-variant-ligatures:normal;font-variant-caps:normal;font-variant-numeric:normal;font-feature-settings:normal;text-align:start;letter-spacing:0.4592675px;writing-mode:lr-tb;text-anchor:start;fill:#183153;fill-opacity:1;stroke:#183153;stroke-width:0.39670488;stroke-miterlimit:4;stroke-dasharray:none;stroke-opacity:1"
         id="path887"
         inkscape:connector-curvature="0" />
      <path
         d="m 57.020103,6.4444681 h -2.557609 l -0.380047,1.037424 h -1.438013 l 3.0301,-7.28251081 h 0.102715 L 58.81762,7.4818921 H 57.420693 Z M 56.640057,5.4481303 55.890236,3.4965406 55.71562,2.9213353 55.551275,3.4965406 54.832269,5.4481303 Z"
         style="font-style:normal;font-variant:normal;font-weight:normal;font-stretch:normal;font-size:10.27152443px;font-family:Alatsi;-inkscape-font-specification:'Alatsi, Normal';font-variant-ligatures:normal;font-variant-caps:normal;font-variant-numeric:normal;font-feature-settings:normal;text-align:start;letter-spacing:0.4592675px;writing-mode:lr-tb;text-anchor:start;fill:#183153;fill-opacity:1;stroke:#183153;stroke-width:0.39670488;stroke-miterlimit:4;stroke-dasharray:none;stroke-opacity:1"
         id="path889"
         inkscape:connector-curvature="0" />
      <path
         d="M 65.947279,0.19938129 V 7.4818921 H 64.67361 V 4.4107063 L 64.71983,3.1986664 64.355191,3.7533287 62.947992,5.4070442 61.540793,3.7533287 61.176154,3.1986664 61.232644,4.4107063 V 7.4818921 H 59.95898 V 0.19938129 h 0.102716 l 2.89657,3.41528191 2.876026,-3.41528191 z"
         style="font-style:normal;font-variant:normal;font-weight:normal;font-stretch:normal;font-size:10.27152443px;font-family:Alatsi;-inkscape-font-specification:'Alatsi, Normal';font-variant-ligatures:normal;font-variant-caps:normal;font-variant-numeric:normal;font-feature-settings:normal;text-align:start;letter-spacing:0.4592675px;writing-mode:lr-tb;text-anchor:start;fill:#183153;fill-opacity:1;stroke:#183153;stroke-width:0.39670488;stroke-miterlimit:4;stroke-dasharray:none;stroke-opacity:1"
         id="path891"
         inkscape:connector-curvature="0" />
    </g>
    <g
       id="text1816"
       style="font-style:normal;font-variant:normal;font-weight:normal;font-stretch:normal;font-size:14.16647148px;line-height:1.20000005;font-family:Alata;-inkscape-font-specification:'Alata, Normal';font-variant-ligatures:normal;font-variant-caps:normal;font-variant-numeric:normal;font-feature-settings:normal;text-align:start;letter-spacing:0px;word-spacing:0px;writing-mode:lr-tb;text-anchor:start;fill:#183153;fill-opacity:1;stroke:none;stroke-width:0.08288673;stroke-miterlimit:4;stroke-dasharray:none;stroke-opacity:1"
       transform="scale(0.99111349,1.0089662)"
       aria-label="CALSIN">
      <path
         id="path845"
         style="font-style:normal;font-variant:normal;font-weight:normal;font-stretch:normal;font-size:14.16647148px;font-family:Alata;-inkscape-font-specification:'Alata, Normal';font-variant-ligatures:normal;font-variant-caps:normal;font-variant-numeric:normal;font-feature-settings:normal;text-align:start;letter-spacing:-0.49667996px;writing-mode:lr-tb;text-anchor:start;fill:#183153;fill-opacity:1;stroke:none;stroke-width:0.08288673;stroke-miterlimit:4;stroke-dasharray:none;stroke-opacity:1"
         d="m 29.388457,19.295569 q -1.614978,0 -2.804962,-0.72249 -1.175817,-0.72249 -1.799142,-1.92664 -0.623324,-1.218317 -0.623324,-2.677463 0,-1.544146 0.665824,-2.762462 0.67999,-1.218317 1.898307,-1.8983076 1.218317,-0.6941571 2.762462,-0.6941571 0.694157,0 1.289149,0.1558312 0.609158,0.1416647 1.005819,0.3399953 0.396661,0.1841641 0.52416,0.3116624 l -0.694157,1.4166468 q -0.864155,-0.764989 -2.252469,-0.764989 -0.977487,0 -1.770809,0.48166 -0.793323,0.48166 -1.24665,1.374148 -0.453327,0.892487 -0.453327,2.068304 0,1.076652 0.396661,1.954974 0.410828,0.878321 1.189984,1.388314 0.779156,0.509993 1.855808,0.509993 1.246649,0 2.4083,-0.708324 l 0.467493,1.345815 q -0.311662,0.283329 -1.147484,0.552492 -0.821655,0.254997 -1.671643,0.254997 z" />
      <path
         id="path847"
         style="font-style:normal;font-variant:normal;font-weight:normal;font-stretch:normal;font-size:14.16647148px;font-family:Alata;-inkscape-font-specification:'Alata, Normal';font-variant-ligatures:normal;font-variant-caps:normal;font-variant-numeric:normal;font-feature-settings:normal;text-align:start;letter-spacing:-0.49667996px;writing-mode:lr-tb;text-anchor:start;fill:#183153;fill-opacity:1;stroke:none;stroke-width:0.08288673;stroke-miterlimit:4;stroke-dasharray:none;stroke-opacity:1"
         d="m 37.157027,8.7698805 5.014931,10.4265235 h -1.827475 l -0.892488,-2.039972 h -4.7741 l -0.892488,2.039972 H 32.014598 L 37.001196,8.7698805 Z m -0.708323,4.4341055 -1.133318,2.521632 h 3.513285 l -1.119152,-2.507465 -0.609158,-1.430814 h -0.02833 z" />
      <path
         id="path849"
         style="font-style:normal;font-variant:normal;font-weight:normal;font-stretch:normal;font-size:14.16647148px;font-family:Alata;-inkscape-font-specification:'Alata, Normal';font-variant-ligatures:normal;font-variant-caps:normal;font-variant-numeric:normal;font-feature-settings:normal;text-align:start;letter-spacing:-0.49667996px;writing-mode:lr-tb;text-anchor:start;fill:#183153;fill-opacity:1;stroke:none;stroke-width:0.08288673;stroke-miterlimit:4;stroke-dasharray:none;stroke-opacity:1"
         d="m 42.561347,8.784047 h 1.600811 v 8.995709 h 2.989125 v 1.416648 h -4.589936 z" />
      <path
         id="path851"
         style="font-style:normal;font-variant:normal;font-weight:normal;font-stretch:normal;font-size:14.16647148px;font-family:Alata;-inkscape-font-specification:'Alata, Normal';font-variant-ligatures:normal;font-variant-caps:normal;font-variant-numeric:normal;font-feature-settings:normal;text-align:start;letter-spacing:-0.49667996px;writing-mode:lr-tb;text-anchor:start;fill:#183153;fill-opacity:1;stroke:none;stroke-width:0.08288673;stroke-miterlimit:4;stroke-dasharray:none;stroke-opacity:1"
         d="m 50.573625,19.338068 q -0.849988,0 -1.68581,-0.297496 -0.835822,-0.297496 -1.20415,-0.665824 l 0.750823,-1.345815 q 0.297496,0.269163 0.920821,0.566659 0.637491,0.28333 1.218316,0.28333 0.750823,0 1.218317,-0.354162 0.48166,-0.354162 0.48166,-0.977487 0,-0.48166 -0.254997,-0.835821 -0.254996,-0.354162 -0.623324,-0.580826 -0.368329,-0.24083 -1.048319,-0.580825 -0.807489,-0.396661 -1.104985,-0.594992 -1.374148,-0.920821 -1.374148,-2.549965 0,-1.345815 0.892488,-2.0541382 0.892488,-0.72249 2.252469,-0.72249 1.459146,0 2.479132,0.8358218 l -0.750823,1.2891494 q -0.269163,-0.28333 -0.764989,-0.481661 -0.48166,-0.212497 -1.034153,-0.212497 -0.708323,0 -1.119151,0.325829 -0.396661,0.311663 -0.396661,0.934987 0,0.439161 0.254997,0.793323 0.254996,0.339995 0.637491,0.594992 0.396661,0.254996 1.062485,0.623324 0.637491,0.354162 0.977487,0.566659 0.339995,0.198331 0.637491,0.48166 0.410828,0.368328 0.665824,0.878321 0.254996,0.509993 0.254996,1.119152 0,0.949153 -0.43916,1.614977 -0.424994,0.665825 -1.189984,1.00582 -0.750823,0.339995 -1.714143,0.339995 z" />
      <path
         id="path853"
         style="font-style:normal;font-variant:normal;font-weight:normal;font-stretch:normal;font-size:14.16647148px;font-family:Alata;-inkscape-font-specification:'Alata, Normal';font-variant-ligatures:normal;font-variant-caps:normal;font-variant-numeric:normal;font-feature-settings:normal;text-align:start;letter-spacing:-0.49667996px;writing-mode:lr-tb;text-anchor:start;fill:#183153;fill-opacity:1;stroke:none;stroke-width:0.08288673;stroke-miterlimit:4;stroke-dasharray:none;stroke-opacity:1"
         d="m 55.309907,8.784047 h 1.586644 v 10.412357 h -1.586644 z" />
      <path
         id="path855"
         style="font-style:normal;font-variant:normal;font-weight:normal;font-stretch:normal;font-size:14.16647148px;font-family:Alata;-inkscape-font-specification:'Alata, Normal';font-variant-ligatures:normal;font-variant-caps:normal;font-variant-numeric:normal;font-feature-settings:normal;text-align:start;letter-spacing:-0.49667996px;writing-mode:lr-tb;text-anchor:start;fill:#183153;fill-opacity:1;stroke:none;stroke-width:0.08288673;stroke-miterlimit:4;stroke-dasharray:none;stroke-opacity:1"
         d="m 60.351212,12.453163 0.0425,1.133318 v 5.609923 H 58.807066 V 8.7698805 h 0.198331 l 6.119916,6.8282395 -0.05667,-1.189984 V 8.784047 h 1.586645 v 10.412357 h -0.212497 z" />
    </g>
  </g>
</svg>
