<?xml version="1.0" encoding="UTF-8" standalone="no"?>
<!-- Created with Inkscape (http://www.inkscape.org/) -->

<svg
   xmlns:dc="http://purl.org/dc/elements/1.1/"
   xmlns:cc="http://creativecommons.org/ns#"
   xmlns:rdf="http://www.w3.org/1999/02/22-rdf-syntax-ns#"
   xmlns:svg="http://www.w3.org/2000/svg"
   xmlns="http://www.w3.org/2000/svg"
   xmlns:sodipodi="http://sodipodi.sourceforge.net/DTD/sodipodi-0.dtd"
   xmlns:inkscape="http://www.inkscape.org/namespaces/inkscape"
   width="20"
   height="20"
   viewBox="0 0 5.2916665 5.2916668"
   version="1.1"
   id="svg8"
   sodipodi:docname="it-share.svg"
   inkscape:version="0.92.3 (2405546, 2018-03-11)">
  <defs
     id="defs2">

















	

		
		
		
		
		
		
		
		
		
		
		
		
		
		
		
		
		
		
		
	</defs>
  <sodipodi:namedview
     id="base"
     pagecolor="#ffffff"
     bordercolor="#666666"
     borderopacity="1.0"
     inkscape:pageopacity="0.0"
     inkscape:pageshadow="2"
     inkscape:zoom="8"
     inkscape:cx="29.505933"
     inkscape:cy="14.351573"
     inkscape:document-units="px"
     inkscape:current-layer="layer1"
     showgrid="false"
     borderlayer="true"
     inkscape:showpageshadow="false"
     units="px"
     showguides="false"
     inkscape:guide-bbox="true"
     inkscape:pagecheckerboard="true"
     inkscape:window-width="1024"
     inkscape:window-height="713"
     inkscape:window-x="0"
     inkscape:window-y="27"
     inkscape:window-maximized="1"
     inkscape:snap-smooth-nodes="false">
    <sodipodi:guide
       position="5.2600631,0.039970401"
       orientation="0,1"
       id="guide2521"
       inkscape:locked="false" />
    <sodipodi:guide
       position="0.031603406,5.2517263"
       orientation="0,1"
       id="guide2523"
       inkscape:locked="false" />
    <sodipodi:guide
       position="0.031603405,5.2517264"
       orientation="1,0"
       id="guide2525"
       inkscape:locked="false" />
    <sodipodi:guide
       position="5.2600631,0.039970401"
       orientation="1,0"
       id="guide2527"
       inkscape:locked="false" />
  </sodipodi:namedview>
  <metadata
     id="metadata5">
    <rdf:RDF>
      <cc:Work
         rdf:about="">
        <dc:format>image/svg+xml</dc:format>
        <dc:type
           rdf:resource="http://purl.org/dc/dcmitype/StillImage" />
        <dc:title></dc:title>
      </cc:Work>
    </rdf:RDF>
  </metadata>
  <g
     inkscape:label="Capa 1"
     inkscape:groupmode="layer"
     id="layer1"
     transform="translate(0,-291.70832)">
    <rect
       style="fill:#333333;fill-rule:evenodd;stroke-width:0.26458332"
       id="rect2754"
       width="5.2284598"
       height="5.2117558"
       x="0.031603403"
       y="291.74826"
       ry="0.77174073" />
    <g
       id="g2559"
       transform="matrix(0.01336797,0,0,0.01336797,-6.8806664,281.20186)">
</g>
    <g
       id="g2561"
       transform="matrix(0.01336797,0,0,0.01336797,-6.8806664,281.20186)">
</g>
    <g
       id="g2563"
       transform="matrix(0.01336797,0,0,0.01336797,-6.8806664,281.20186)">
</g>
    <g
       id="g2565"
       transform="matrix(0.01336797,0,0,0.01336797,-6.8806664,281.20186)">
</g>
    <g
       id="g2567"
       transform="matrix(0.01336797,0,0,0.01336797,-6.8806664,281.20186)">
</g>
    <g
       id="g2569"
       transform="matrix(0.01336797,0,0,0.01336797,-6.8806664,281.20186)">
</g>
    <g
       id="g2571"
       transform="matrix(0.01336797,0,0,0.01336797,-6.8806664,281.20186)">
</g>
    <g
       id="g2573"
       transform="matrix(0.01336797,0,0,0.01336797,-6.8806664,281.20186)">
</g>
    <g
       id="g2575"
       transform="matrix(0.01336797,0,0,0.01336797,-6.8806664,281.20186)">
</g>
    <g
       id="g2577"
       transform="matrix(0.01336797,0,0,0.01336797,-6.8806664,281.20186)">
</g>
    <g
       id="g2579"
       transform="matrix(0.01336797,0,0,0.01336797,-6.8806664,281.20186)">
</g>
    <g
       id="g2581"
       transform="matrix(0.01336797,0,0,0.01336797,-6.8806664,281.20186)">
</g>
    <g
       id="g2583"
       transform="matrix(0.01336797,0,0,0.01336797,-6.8806664,281.20186)">
</g>
    <g
       id="g2585"
       transform="matrix(0.01336797,0,0,0.01336797,-6.8806664,281.20186)">
</g>
    <g
       id="g2587"
       transform="matrix(0.01336797,0,0,0.01336797,-6.8806664,281.20186)">
</g>
    <path
       id="path2739"
       d="m 3.6523998,295.05049 c -0.1263506,0 -0.2443057,0.042 -0.3285422,0.12583 l -1.2044981,-0.69628 c 0.00842,-0.042 0.016868,-0.0756 0.016868,-0.11748 0,-0.042 -0.00842,-0.0756 -0.016868,-0.11749 l 1.1877176,-0.68787 c 0.092619,0.0838 0.2105777,0.1342 0.3453227,0.1342 0.2779392,0 0.5053856,-0.22652 0.5053856,-0.50334 0,-0.27683 -0.2274464,-0.50336 -0.5053856,-0.50336 -0.2779549,0 -0.5053929,0.22653 -0.5053929,0.50336 0,0.042 0.00842,0.0756 0.016867,0.11748 l -1.1876776,0.68787 c -0.092662,-0.084 -0.2105788,-0.1342 -0.3453553,-0.1342 -0.2779475,0 -0.4969597,0.22651 -0.4969597,0.50335 0,0.27682 0.2273991,0.50336 0.5053856,0.50336 0.1347764,0 0.2526929,-0.0505 0.3453554,-0.1342 l 1.1961035,0.69629 c -0.00852,0.0335 -0.016855,0.0671 -0.016855,0.10905 0,0.26848 0.218966,0.48655 0.4885263,0.48655 0.2695449,0 0.488518,-0.21807 0.488518,-0.48655 7.4e-6,-0.26849 -0.2189574,-0.48657 -0.4885106,-0.48657 z"
       inkscape:connector-curvature="0"
       style="fill:#ffffff;stroke:#ffffff;stroke-width:0.17657632;stroke-miterlimit:4;stroke-dasharray:none;stroke-opacity:1" />
  </g>
</svg>
